<svg width="34" height="34" viewBox="0 0 34 34" fill="none" xmlns="http://www.w3.org/2000/svg">
<path d="M17 32C25.2843 32 32 25.2843 32 17C32 8.71573 25.2843 2 17 2C8.71573 2 2 8.71573 2 17C2 25.2843 8.71573 32 17 32Z" stroke="white" stroke-width="3"/>
<path d="M8.75977 24.2725H14.4998C16.9398 24.2725 18.7398 22.5125 18.7398 20.1525C18.7398 18.4125 17.7798 17.0325 15.9398 16.6925C17.0598 16.2725 17.7198 15.2325 17.7198 13.8925C17.7198 11.8325 15.9998 10.3325 13.8198 10.3325H8.75977V24.2725ZM11.2798 15.9525V12.6125H13.4998C14.5398 12.6125 15.2598 13.3325 15.2598 14.2325C15.2598 15.2325 14.5398 15.9525 13.4798 15.9525H11.2798ZM11.2798 21.9925V18.0525H14.0598C15.3598 18.0525 16.2398 18.8925 16.2398 20.0125C16.2398 21.1325 15.3398 21.9925 14.0798 21.9925H11.2798ZM20.7593 20.0525C20.7593 23.4925 23.2393 24.3125 24.8993 24.3125C24.9193 24.3125 25.3993 24.3125 25.3993 24.3125V22.0325H25.2793C24.0193 22.0325 23.1793 21.4125 23.1793 19.8725V16.3925H25.3993V14.1925H23.1793V10.3325H20.7593V20.0525Z" fill="white"/>
</svg>
