<svg width="34" height="34" viewBox="0 0 34 34" fill="none" xmlns="http://www.w3.org/2000/svg">
<path d="M17 32C25.2843 32 32 25.2843 32 17C32 8.71573 25.2843 2 17 2C8.71573 2 2 8.71573 2 17C2 25.2843 8.71573 32 17 32Z" stroke="white" stroke-width="3"/>
<path d="M7.37074 10.9091H10.4709L13.456 16.5469H13.5838L16.5689 10.9091H19.669L14.8942 19.3722V24H12.1456V19.3722L7.37074 10.9091ZM23.5091 24.1918C22.5034 24.1918 21.6383 23.9787 20.9139 23.5526C20.1937 23.1222 19.6397 22.5256 19.252 21.7628C18.8684 21 18.6767 20.1222 18.6767 19.1293C18.6767 18.1236 18.8706 17.2415 19.2583 16.483C19.6504 15.7202 20.2065 15.1257 20.9267 14.6996C21.6468 14.2692 22.5034 14.054 23.4963 14.054C24.3528 14.054 25.1028 14.2095 25.7463 14.5206C26.3897 14.8317 26.899 15.2685 27.274 15.831C27.649 16.3935 27.8556 17.054 27.894 17.8125H25.3244C25.252 17.3224 25.0602 16.9283 24.7491 16.63C24.4423 16.3274 24.0396 16.1761 23.541 16.1761C23.1191 16.1761 22.7505 16.2912 22.4352 16.5213C22.1241 16.7472 21.8812 17.0774 21.7065 17.5121C21.5318 17.9467 21.4444 18.473 21.4444 19.0909C21.4444 19.7173 21.5297 20.25 21.7001 20.6889C21.8748 21.1278 22.1199 21.4624 22.4352 21.6925C22.7505 21.9226 23.1191 22.0376 23.541 22.0376C23.8521 22.0376 24.1312 21.9737 24.3784 21.8459C24.6298 21.718 24.8365 21.5327 24.9984 21.2898C25.1646 21.0426 25.2733 20.7464 25.3244 20.4013H27.894C27.8514 21.1513 27.6468 21.8118 27.2804 22.3828C26.9181 22.9496 26.4174 23.3928 25.7782 23.7124C25.139 24.032 24.3826 24.1918 23.5091 24.1918Z" fill="white"/>
</svg>
