<svg width="40" height="40" viewBox="0 0 40 40" fill="none" xmlns="http://www.w3.org/2000/svg">
<rect width="40" height="40" rx="5" fill="#FF4B4B"/>
<path d="M25.9669 14.0371H14.0131C13.7307 14.0371 13.4601 14.164 13.2634 14.3726C13.0668 14.5818 12.9607 14.8682 12.9692 15.159L13.3763 29.0037C13.3933 29.5851 13.8553 30.0527 14.4199 30.0527H15.2991V29.1072C15.2991 28.0219 16.1447 27.1252 17.1978 27.1252H22.7819C23.8355 27.1252 24.6984 28.0219 24.6984 29.1072V30.0527H25.5598C26.1245 30.0527 26.5867 29.5872 26.6039 29.0057L27.0105 15.1606C27.0191 14.8698 26.913 14.5818 26.7163 14.3726C26.5197 14.164 26.2496 14.0371 25.9669 14.0371Z" fill="white"/>
<path d="M22.825 28.5898H17.2409C16.9718 28.5898 16.7207 28.7871 16.7207 29.108V30.5015C16.7207 30.8017 16.9539 31.0008 17.2409 31.0008H22.825C23.1011 31.0008 23.3212 30.786 23.3212 30.5015V29.108C23.3212 28.8241 23.1011 28.5898 22.825 28.5898Z" fill="white"/>
<path d="M28 10.2197C28 9.54616 27.4703 9 26.8166 9H13.1834C12.5297 9 12 9.54616 12 10.2197V11.6121C12 12.2858 12.5297 12.8317 13.1834 12.8317H26.8165C27.4703 12.8317 28 12.2858 28 11.6121L28 10.2197Z" fill="white"/>
</svg>
