<svg width="40" height="40" viewBox="0 0 40 40" fill="none" xmlns="http://www.w3.org/2000/svg">
<rect width="40" height="40" rx="5" fill="#FFB703"/>
<path d="M11.6252 16.1822V29.4266H24.8695V23.623C25.5264 23.1916 26.1244 22.7407 26.693 22.2554C26.8302 22.1476 27.0998 21.927 27.4478 21.5937V30.7108C27.4478 31.4216 26.8694 32 26.1587 32H10.336C9.62527 32 9.04688 31.4216 9.04688 30.7108V14.8931C9.04688 14.1823 9.62527 13.6039 10.336 13.6039H14.6397C14.1691 14.4078 13.7672 15.2705 13.429 16.1822H11.6252ZM32.6387 8.19737C32.1976 8.12384 31.6584 8.07483 31.0457 8.04051L30.8888 8.03561C30.7957 8.03071 30.7025 8.02581 30.6045 8.02091H30.5898L30.3545 8.0111H30.3496C26.0851 7.86896 23.1147 9.13849 23.1147 9.13849C19.0708 10.7757 16.2867 13.702 15.0318 18.1674C14.625 19.6134 14.7524 21.1182 14.9583 22.5985C14.9828 22.7358 15.0563 22.9368 15.4877 22.6623C16.3455 20.3193 17.7768 18.1282 19.4777 16.241C21.6295 13.8588 24.046 11.9619 27.041 10.7708C27.59 10.5502 28.1144 10.3835 28.6732 10.1924C28.6928 10.2414 28.6487 10.2904 28.6046 10.31C28.5899 10.3149 28.5703 10.3198 28.5556 10.3247C26.9626 10.9374 25.5411 11.8491 24.2176 12.9177C21.9873 14.7215 20.1198 16.8587 18.4875 19.2066C16.5955 21.927 15.076 24.8337 14.0809 28.0002C14.0809 28.0002 13.9044 28.7894 14.5025 28.2159L17.1396 24.9366C17.169 24.8778 17.2082 24.8337 17.2523 24.7994C17.3062 24.7504 17.3748 24.7161 17.4582 24.6867C18.6591 24.2357 19.8747 23.824 21.0413 23.2946C22.6099 22.5838 24.0509 21.6966 25.3352 20.5937C25.4773 20.4859 26.9037 19.3732 28.4036 17.0694C28.4282 17.04 28.4527 17.0057 28.4723 16.9665C28.4821 16.9518 28.4919 16.9322 28.5017 16.9175C28.8644 16.344 29.232 15.7019 29.5899 14.9862L26.5655 14.5745C26.5655 14.5745 29.9869 14.0892 30.4918 12.9814C30.5212 12.9226 30.5555 12.8197 30.58 12.7559C30.8447 12.1579 31.1143 11.4962 31.4133 10.9472C31.5064 10.6629 32.1878 9.4522 32.8838 8.74146C33.0505 8.56009 32.8887 8.23658 32.6387 8.19737Z" fill="white"/>
</svg>
