<svg width="20" height="24" viewBox="0 0 20 24" fill="none" xmlns="http://www.w3.org/2000/svg">
<path d="M10 0L0 4.36364V10.9091C0 16.9636 4.26667 22.6255 10 24C15.7333 22.6255 20 16.9636 20 10.9091V4.36364L10 0ZM10 4.25455C10.6593 4.25455 11.3037 4.44649 11.8519 4.8061C12.4001 5.16571 12.8273 5.67684 13.0796 6.27485C13.3319 6.87287 13.3979 7.5309 13.2693 8.16575C13.1407 8.8006 12.8232 9.38374 12.357 9.84144C11.8908 10.2991 11.2969 10.6108 10.6503 10.7371C10.0037 10.8634 9.33348 10.7986 8.72439 10.5509C8.1153 10.3032 7.59471 9.8837 7.22844 9.3455C6.86216 8.80731 6.66667 8.17456 6.66667 7.52727C6.66667 6.65929 7.01786 5.82686 7.64298 5.21311C8.2681 4.59935 9.11595 4.25455 10 4.25455ZM10 12.8727C12.2222 12.8727 16.6667 14.0618 16.6667 16.2327C15.9369 17.3129 14.9463 18.1989 13.783 18.8118C12.6198 19.4247 11.3202 19.7455 10 19.7455C8.67984 19.7455 7.3802 19.4247 6.21697 18.8118C5.05374 18.1989 4.06308 17.3129 3.33333 16.2327C3.33333 14.0618 7.77778 12.8727 10 12.8727Z" fill="#065374"/>
</svg>
