<svg width="32" height="32" viewBox="0 0 32 32" fill="none" xmlns="http://www.w3.org/2000/svg">
<circle cx="16" cy="16" r="16" fill="#003F5A"/>
<path d="M9.77778 24.7774H22.2222C22.6937 24.7774 23.1459 24.5901 23.4793 24.2567C23.8127 23.9233 24 23.4711 24 22.9996V13.2218C24 12.9861 23.9064 12.76 23.7397 12.5933C23.573 12.4266 23.3469 12.3329 23.1111 12.3329H20.4444V11.6423C20.4444 9.32315 18.7529 7.2467 16.4444 7.02181C15.8266 6.9604 15.2027 7.02901 14.6129 7.22323C14.0231 7.41746 13.4805 7.73299 13.02 8.14952C12.5595 8.56606 12.1913 9.07438 11.9391 9.64178C11.6869 10.2092 11.5562 10.8231 11.5556 11.444V12.3329H8.88889C8.65314 12.3329 8.42705 12.4266 8.26035 12.5933C8.09365 12.76 8 12.9861 8 13.2218V22.9996C8 23.4711 8.1873 23.9233 8.5207 24.2567C8.8541 24.5901 9.30628 24.7774 9.77778 24.7774ZM20.4444 14.1107V15.8885H18.6667V14.1107H20.4444ZM13.3333 11.444C13.3333 9.97381 14.5298 8.77737 16 8.77737C17.4702 8.77737 18.6667 9.97381 18.6667 11.444V12.3329H13.3333V11.444ZM11.5556 14.1107H13.3333V15.8885H11.5556V14.1107Z" fill="#F8F8F8"/>
</svg>
