<svg width="25" height="28" viewBox="0 0 25 28" fill="none" xmlns="http://www.w3.org/2000/svg">
<path d="M9.69475 17.9356L9.04614 21.752L12.4475 19.9502L15.8489 21.752L15.1989 17.9356L17.9517 15.2308L14.1489 14.6736L12.4475 11.2002L10.7461 14.6736L6.94336 15.2308L9.69475 17.9356Z" fill="#065374"/>
<path d="M22.2222 2.8H19.4444V0H16.6667V2.8H8.33333V0H5.55556V2.8H2.77778C1.24583 2.8 0 4.0558 0 5.6V25.2C0 26.7442 1.24583 28 2.77778 28H22.2222C23.7542 28 25 26.7442 25 25.2V5.6C25 4.0558 23.7542 2.8 22.2222 2.8ZM22.225 25.2H2.77778V8.4H22.2222L22.225 25.2Z" fill="#065374"/>
</svg>
