<svg width="24" height="26" viewBox="0 0 24 26" fill="none" xmlns="http://www.w3.org/2000/svg">
<path d="M11.908 0.751183C12.0731 0.544629 12.2776 0.372869 12.5095 0.245843C12.7415 0.118817 12.9964 0.039049 13.2594 0.0111563C13.5224 -0.0167365 13.7883 0.0077999 14.0418 0.0833453C14.2953 0.158891 14.5312 0.283945 14.736 0.451268L21.26 5.77775C21.6188 6.07061 21.8648 6.47889 21.956 6.93288C22.0471 7.38687 21.9779 7.85842 21.76 8.26705C21.1896 8.09277 20.5964 8.00449 20 8.00512H19.4L19.996 7.32531L16.56 4.52011L13.726 8.00712H11.148L15.01 3.25647L13.47 1.99883L8.674 8.00512H6.114L11.908 0.751183ZM17 18.0023C16.7348 18.0023 16.4804 18.1076 16.2929 18.2951C16.1054 18.4826 16 18.7368 16 19.002C16 19.2671 16.1054 19.5214 16.2929 19.7089C16.4804 19.8964 16.7348 20.0017 17 20.0017H19C19.2652 20.0017 19.5196 19.8964 19.7071 19.7089C19.8946 19.5214 20 19.2671 20 19.002C20 18.7368 19.8946 18.4826 19.7071 18.2951C19.5196 18.1076 19.2652 18.0023 19 18.0023H17ZM2 9.00484C2 8.73969 2.10536 8.48541 2.29289 8.29793C2.48043 8.11045 2.73478 8.00512 3 8.00512H4.116L5.706 6.00569H3C2.20435 6.00569 1.44129 6.32167 0.87868 6.88412C0.316071 7.44657 0 8.20941 0 9.00484V21.0014C0 22.3271 0.526784 23.5985 1.46447 24.5359C2.40215 25.4734 3.67392 26 5 26H20C21.0609 26 22.0783 25.5787 22.8284 24.8288C23.5786 24.0788 24 23.0617 24 22.0011V14.0034C24 12.9428 23.5786 11.9257 22.8284 11.1758C22.0783 10.4259 21.0609 10.0045 20 10.0045H3C2.73478 10.0045 2.48043 9.89922 2.29289 9.71174C2.10536 9.52426 2 9.26998 2 9.00484ZM2 21.0014V11.834C2.312 11.944 2.65 12.004 3 12.004H20C20.5304 12.004 21.0391 12.2146 21.4142 12.5896C21.7893 12.9646 22 13.4731 22 14.0034V22.0011C22 22.5314 21.7893 23.04 21.4142 23.4149C21.0391 23.7899 20.5304 24.0006 20 24.0006H5C4.20435 24.0006 3.44129 23.6846 2.87868 23.1221C2.31607 22.5597 2 21.7968 2 21.0014Z" fill="black"/>
</svg>
