<svg width="19" height="20" viewBox="0 0 19 20" fill="none" xmlns="http://www.w3.org/2000/svg">
<path d="M11.631 19.4452C12.1919 19.4452 12.7298 19.2 13.1264 18.7635C13.523 18.3271 13.7458 17.7351 13.7458 17.1178C13.7458 16.5006 13.523 15.9086 13.1264 15.4721C12.7298 15.0357 12.1919 14.7905 11.631 14.7905C11.0701 14.7905 10.5322 15.0357 10.1356 15.4721C9.73898 15.9086 9.51617 16.5006 9.51617 17.1178C9.51617 17.7351 9.73898 18.3271 10.1356 18.7635C10.5322 19.2 11.0701 19.4452 11.631 19.4452ZM4.22915 19.4452C4.79004 19.4452 5.32794 19.2 5.72455 18.7635C6.12115 18.3271 6.34396 17.7351 6.34396 17.1178C6.34396 16.5006 6.12115 15.9086 5.72455 15.4721C5.32794 15.0357 4.79004 14.7905 4.22915 14.7905C3.66827 14.7905 3.13036 15.0357 2.73376 15.4721C2.33716 15.9086 2.11435 16.5006 2.11435 17.1178C2.11435 17.7351 2.33716 18.3271 2.73376 18.7635C3.13036 19.2 3.66827 19.4452 4.22915 19.4452ZM18.0156 3.06395C18.2795 3.05458 18.5298 2.93259 18.7136 2.72378C18.8973 2.51497 19 2.23571 19 1.94506C19 1.65441 18.8973 1.37515 18.7136 1.16634C18.5298 0.95753 18.2795 0.835542 18.0156 0.826172H16.7985C15.8447 0.826172 15.0199 1.55464 14.8127 2.57869L13.4878 9.14423C13.2805 10.1683 12.4557 10.8967 11.502 10.8967H3.55876L2.03399 4.18226H11.9154C12.1769 4.16912 12.4237 4.04557 12.6045 3.83728C12.7854 3.629 12.8863 3.35202 12.8863 3.06395C12.8863 2.77588 12.7854 2.4989 12.6045 2.29062C12.4237 2.08233 12.1769 1.95877 11.9154 1.94564H2.03399C1.72487 1.94554 1.4198 2.023 1.14198 2.17214C0.864147 2.32127 0.620872 2.53815 0.430643 2.80629C0.240414 3.07443 0.108236 3.38677 0.0441628 3.71957C-0.0199108 4.05237 -0.0141964 4.39686 0.060873 4.72686L1.58565 11.439C1.69557 11.9234 1.94949 12.3533 2.30702 12.6605C2.66455 12.9678 3.10515 13.1346 3.55876 13.1345H11.502C12.4274 13.1347 13.3252 12.7874 14.0471 12.1502C14.769 11.5129 15.2718 10.6237 15.4725 9.62949L16.7985 3.06395H18.0156Z" fill="#C33E4D"/>
</svg>
