<svg width="26" height="23" viewBox="0 0 26 23" fill="none" xmlns="http://www.w3.org/2000/svg">
<path d="M25.6001 19.9999C25.6001 20.6364 25.3472 21.2469 24.8972 21.697C24.4471 22.147 23.8366 22.3999 23.2001 22.3999L2.4001 22.3999C1.76358 22.3999 1.15313 22.147 0.703043 21.697C0.252955 21.2469 9.73519e-05 20.6364 9.73797e-05 19.9999L9.78693e-05 8.7999C9.78971e-05 8.16338 0.252955 7.55293 0.703044 7.10284C1.15313 6.65276 1.76358 6.3999 2.4001 6.3999L4.8001 6.3999C5.01227 6.3999 5.21575 6.48419 5.36578 6.63422C5.51581 6.78424 5.6001 6.98773 5.6001 7.1999C5.6001 7.8607 5.7633 8.2831 5.9777 8.5695C6.1969 8.8623 6.5249 9.0847 6.9745 9.2479C7.9153 9.5903 9.1617 9.5999 10.4001 9.5999C10.5053 9.59992 10.6095 9.62071 10.7067 9.66107C10.8039 9.70143 10.8922 9.76057 10.9665 9.8351L11.4257 10.2927L13.3665 12.2335C14.1137 12.9807 14.6145 13.1999 14.8945 13.2415C15.1185 13.2735 15.2689 13.2063 15.4225 13.0463C15.7505 12.7039 15.9729 12.4591 16.0401 12.1823C16.0817 12.0175 16.1105 11.6415 15.4353 10.9663L10.6353 6.1663C10.4851 6.0163 10.4006 5.81276 10.4005 5.60047C10.4004 5.49535 10.421 5.39125 10.4612 5.29411C10.5013 5.19697 10.5602 5.10868 10.6345 5.0343C10.7088 4.95992 10.797 4.9009 10.8941 4.8606C10.9911 4.82031 11.0952 4.79953 11.2003 4.79946C11.3054 4.79938 11.4096 4.82001 11.5067 4.86017C11.6038 4.90033 11.6921 4.95923 11.7665 5.0335L13.1313 6.3999L18.0689 6.3999L13.9729 2.3039C13.7501 2.08079 13.4854 1.90377 13.1942 1.78298C12.9029 1.66218 12.5906 1.59997 12.2753 1.5999L0.800097 1.5999C0.587926 1.5999 0.38444 1.51562 0.234412 1.36559C0.0843839 1.21556 9.82097e-05 1.01207 9.82189e-05 0.799901C9.82282e-05 0.587727 0.084384 0.384244 0.234412 0.234216C0.38444 0.0841855 0.587926 -9.83681e-05 0.800097 -9.83588e-05L12.2753 -9.78572e-05C13.3357 0.000127256 14.3526 0.421394 15.1025 1.1711L20.3313 6.3999L23.2001 6.3999C23.8366 6.3999 24.4471 6.65276 24.8972 7.10285C25.3472 7.55293 25.6001 8.16338 25.6001 8.7999L25.6001 19.9999ZM20.0001 7.9999L14.7313 7.9999L16.5665 9.8335C17.4913 10.7599 17.8097 11.6799 17.5953 12.5615C17.5526 12.7347 17.4908 12.9026 17.4113 13.0623C17.6185 13.7775 17.6565 14.5311 17.5223 15.2635C17.3881 15.996 17.0854 16.6871 16.6382 17.2825C16.1909 17.8778 15.6113 18.3609 14.9452 18.6937C14.2791 19.0265 13.5447 19.1998 12.8001 19.1999C11.8722 19.2 10.9641 18.9311 10.1859 18.4258C9.40762 17.9205 8.7925 17.2004 8.41498 16.3528C8.03746 15.5051 7.91372 14.5662 8.05874 13.6497C8.20376 12.7332 8.61132 11.8784 9.2321 11.1887C8.3073 11.1615 7.2961 11.0687 6.4273 10.7519C5.7761 10.5151 5.1537 10.1375 4.6993 9.5295L4.6897 9.5199C4.53648 10.0071 4.23182 10.4327 3.82004 10.7349C3.40826 11.037 2.91084 11.1999 2.4001 11.1999L1.6001 11.1999L1.6001 17.5999L2.4001 17.5999C3.03662 17.5999 3.64707 17.8528 4.09715 18.3028C4.54724 18.7529 4.8001 19.3634 4.8001 19.9999L4.8001 20.7999L20.8001 20.7999L20.8001 19.9999C20.8001 19.3634 21.053 18.7529 21.503 18.3028C21.9531 17.8528 22.5636 17.5999 23.2001 17.5999L24.0001 17.5999L24.0001 11.1999L23.2001 11.1999C22.5636 11.1999 21.9531 10.947 21.503 10.497C21.053 10.0469 20.8001 9.43642 20.8001 8.7999L20.8001 7.9999L20.0001 7.9999ZM2.4001 7.9999L2.3857 7.9999C2.17603 8.00368 1.97623 8.08962 1.8293 8.23925C1.68237 8.38887 1.60006 8.5902 1.6001 8.7999L1.6001 9.5999L2.4001 9.5999C2.61227 9.5999 2.81575 9.51562 2.96578 9.36559C3.11581 9.21556 3.2001 9.01207 3.2001 8.7999L3.2001 7.9999L2.4001 7.9999ZM12.8001 17.5999C13.6139 17.5999 14.3971 17.2898 14.9904 16.7328C15.5837 16.1758 15.9424 15.4137 15.9937 14.6015C15.6257 14.7999 15.1777 14.9007 14.6609 14.8239C13.8897 14.7103 13.0881 14.2191 12.2353 13.3663L10.7841 11.9151C10.2707 12.3317 9.89897 12.8971 9.71997 13.5336C9.54098 14.17 9.56352 14.8463 9.78451 15.4695C10.0055 16.0926 10.4141 16.632 10.954 17.0135C11.494 17.395 12.1389 17.5998 12.8001 17.5999ZM24.0001 19.1999L23.2001 19.1999C22.9879 19.1999 22.7844 19.2842 22.6344 19.4342C22.4844 19.5842 22.4001 19.7877 22.4001 19.9999L22.4001 20.7999L23.2001 20.7999C23.4123 20.7999 23.6158 20.7156 23.7658 20.5656C23.9158 20.4156 24.0001 20.2121 24.0001 19.9999L24.0001 19.1999ZM3.2001 20.7999L3.2001 19.9999C3.2001 19.7877 3.11581 19.5842 2.96578 19.4342C2.81575 19.2842 2.61227 19.1999 2.4001 19.1999L1.6001 19.1999L1.6001 19.9999C1.6001 20.2121 1.68438 20.4156 1.83441 20.5656C1.98444 20.7156 2.18792 20.7999 2.4001 20.7999L3.2001 20.7999ZM22.4001 7.9999L22.4001 8.7999C22.4001 9.01208 22.4844 9.21556 22.6344 9.36559C22.7844 9.51562 22.9879 9.5999 23.2001 9.5999L24.0001 9.5999L24.0001 8.7999C24.0001 8.58773 23.9158 8.38424 23.7658 8.23422C23.6158 8.08419 23.4123 7.9999 23.2001 7.9999L22.4001 7.9999Z" fill="white"/>
</svg>
