<svg width="25" height="25" viewBox="0 0 25 25" fill="none" xmlns="http://www.w3.org/2000/svg">
<circle cx="12.5" cy="12.5" r="12.5" fill="#065374"/>
<path d="M10.6943 7.63875L14.8352 5.24805L16.2188 7.64475L10.6943 7.63875V7.63875Z" stroke="white" stroke-width="2" stroke-linecap="round" stroke-linejoin="round"/>
<path d="M6.5 8.24844C6.5 8.08931 6.56321 7.9367 6.67574 7.82417C6.78826 7.71165 6.94087 7.64844 7.1 7.64844H17.9C18.0591 7.64844 18.2117 7.71165 18.3243 7.82417C18.4368 7.9367 18.5 8.08931 18.5 8.24844V16.6484C18.5 16.8076 18.4368 16.9602 18.3243 17.0727C18.2117 17.1852 18.0591 17.2484 17.9 17.2484H7.1C6.94087 17.2484 6.78826 17.1852 6.67574 17.0727C6.56321 16.9602 6.5 16.8076 6.5 16.6484V8.24844Z" stroke="white" stroke-width="2" stroke-linejoin="round"/>
<path d="M15.8758 13.9473H18.5008V10.9473H15.8758C15.0058 10.9473 14.3008 11.619 14.3008 12.4473C14.3008 13.2756 15.0058 13.9473 15.8758 13.9473Z" stroke="white" stroke-width="2" stroke-linejoin="round"/>
<path d="M18.5 8.99805V16.198" stroke="white" stroke-width="2" stroke-linecap="round"/>
</svg>
