<svg width="25" height="25" viewBox="0 0 25 25" fill="none" xmlns="http://www.w3.org/2000/svg">
<path d="M12.5 0C5.59644 0 0 5.59644 0 12.5C0 19.4036 5.59644 25 12.5 25C19.4036 25 25 19.4036 25 12.5C25 5.59644 19.4036 0 12.5 0ZM8.00781 4.96521C8.26535 4.95002 8.49815 5.10396 8.67463 5.37719L10.3836 8.61815C10.5635 9.00219 10.4613 9.4134 10.1929 9.68779L9.4101 10.4706C9.36179 10.5368 9.33 10.6113 9.32923 10.6933C9.62942 11.8553 10.54 12.9271 11.3434 13.6642C12.1468 14.4013 13.0103 15.3993 14.1312 15.6357C14.2697 15.6743 14.4394 15.6882 14.5386 15.596L15.448 14.6698C15.7619 14.4319 16.216 14.3166 16.5512 14.5111H16.5665L19.6502 16.3315C20.1029 16.6152 20.1498 17.1637 19.8257 17.4973L17.7017 19.6045C17.3881 19.9262 16.9714 20.0343 16.5665 20.0348C14.7759 19.9811 13.084 19.1023 11.6944 18.1992C9.41333 16.5397 7.32098 14.4815 6.0074 11.9949C5.5036 10.9522 4.91179 9.62181 4.96827 8.45798C4.97331 8.02015 5.09177 7.59121 5.4001 7.309L7.52413 5.18498C7.68958 5.04419 7.85327 4.97433 8.00781 4.96521Z" fill="#065374"/>
</svg>
