<svg width="25" height="25" viewBox="0 0 25 25" fill="none" xmlns="http://www.w3.org/2000/svg">
<path d="M12.5 0C5.59644 0 0 5.59644 0 12.5C0 19.4036 5.59644 25 12.5 25C19.4036 25 25 19.4036 25 12.5C25 5.59644 19.4036 0 12.5 0ZM12.5 4.23431C15.9414 4.23431 18.7317 7.02467 18.7317 10.466C18.7317 11.5084 18.446 12.8846 17.8589 13.6627L12.5 20.7657L7.1411 13.6627C6.49467 12.806 6.26829 11.6169 6.26829 10.466C6.26831 7.02467 9.05865 4.23431 12.5 4.23431ZM12.5 7.84454C11.052 7.84454 9.87854 9.01802 9.87854 10.466C9.87854 11.914 11.052 13.0875 12.5 13.0875C13.948 13.0875 15.1215 11.914 15.1215 10.466C15.1215 9.01802 13.948 7.84454 12.5 7.84454Z" fill="#065374"/>
</svg>
