<svg width="20" height="22" viewBox="0 0 20 22" fill="none" xmlns="http://www.w3.org/2000/svg">
<path d="M13.2479 13.4622C13.103 13.4177 12.1869 13.0304 12.7593 11.398H12.7511C14.2434 9.95639 15.3838 7.6366 15.3838 5.35271C15.3838 1.84096 12.8943 0 10.0009 0C7.10574 0 4.6299 1.8401 4.6299 5.35271C4.6299 7.646 5.7639 9.9752 7.26527 11.4134C7.8505 12.8534 6.80401 13.3878 6.58523 13.4622C3.55515 14.4908 0 16.3643 0 18.2138V18.9072C0 21.4271 5.20875 22 10.0292 22C14.8569 22 20 21.4271 20 18.9072V18.2138C20 16.3087 16.4275 14.4498 13.2479 13.4622ZM8.21969 20.9089C8.21969 18.7294 9.69918 15.7871 9.69918 15.7871L8.67548 15.0338C8.67548 14.3138 10 13.5605 10 13.5605C10 13.5605 11.3209 14.3258 11.3209 15.0338L10.3008 15.7871C10.3008 15.7871 11.7803 18.7183 11.7803 20.9329C11.7803 21.28 8.21969 21.1997 8.21969 20.9089Z" fill="#27A8D1"/>
</svg>
