<svg width="40" height="40" viewBox="0 0 40 40" fill="none" xmlns="http://www.w3.org/2000/svg">
<rect width="40" height="40" rx="5" fill="#065374"/>
<path d="M31.662 13.7938C31.5558 13.6912 31.4295 13.6097 31.2902 13.5541C31.151 13.4985 31.0017 13.4698 30.8508 13.4698C30.7 13.4698 30.5507 13.4985 30.4114 13.5541C30.2722 13.6097 30.1458 13.6912 30.0396 13.7938L28.5658 15.2176V9.09524C28.5658 8.80476 28.4454 8.52618 28.2311 8.32079C28.0168 8.11539 27.7262 8 27.4232 8C27.1202 8 26.8296 8.11539 26.6153 8.32079C26.401 8.52618 26.2807 8.80476 26.2807 9.09524V15.2176L24.8068 13.7938C24.5916 13.5876 24.2998 13.4717 23.9956 13.4717C23.6913 13.4717 23.3995 13.5876 23.1844 13.7938C22.9692 14 22.8484 14.2798 22.8484 14.5714C22.8484 14.8631 22.9692 15.1428 23.1844 15.349L26.612 18.6348C26.7207 18.7345 26.8488 18.8126 26.989 18.8648C27.1258 18.9227 27.2737 18.9526 27.4232 18.9526C27.5727 18.9526 27.7206 18.9227 27.8574 18.8648C27.9976 18.8126 28.1258 18.7345 28.2344 18.6348L31.662 15.349C31.7691 15.2472 31.8541 15.1261 31.9121 14.9926C31.9701 14.8592 32 14.716 32 14.5714C32 14.4268 31.9701 14.2837 31.9121 14.1502C31.8541 14.0168 31.7691 13.8956 31.662 13.7938ZM27.4232 21.1429C27.1202 21.1429 26.8296 21.2582 26.6153 21.4636C26.401 21.669 26.2807 21.9476 26.2807 22.2381V22.6543L24.5897 21.0333C23.9926 20.4655 23.1857 20.1469 22.3446 20.1469C21.5036 20.1469 20.6966 20.4655 20.0995 21.0333L19.2997 21.8L16.4662 19.0838C15.8608 18.5314 15.057 18.2233 14.2211 18.2233C13.3853 18.2233 12.5815 18.5314 11.976 19.0838L10.2851 20.7048V14.5714C10.2851 14.281 10.4055 14.0024 10.6197 13.797C10.834 13.5916 11.1246 13.4762 11.4276 13.4762H20.568C20.871 13.4762 21.1616 13.3608 21.3759 13.1554C21.5901 12.95 21.7105 12.6714 21.7105 12.381C21.7105 12.0905 21.5901 11.8119 21.3759 11.6065C21.1616 11.4011 20.871 11.2857 20.568 11.2857H11.4276C10.5186 11.2857 9.64673 11.6319 9.00393 12.2481C8.36112 12.8643 8 13.7 8 14.5714V27.7143C8 28.5857 8.36112 29.4214 9.00393 30.0376C9.64673 30.6538 10.5186 31 11.4276 31H25.1381C26.0472 31 26.919 30.6538 27.5618 30.0376C28.2046 29.4214 28.5658 28.5857 28.5658 27.7143V22.2381C28.5658 21.9476 28.4454 21.669 28.2311 21.4636C28.0168 21.2582 27.7262 21.1429 27.4232 21.1429ZM11.4276 28.8095C11.1246 28.8095 10.834 28.6941 10.6197 28.4887C10.4055 28.2833 10.2851 28.0048 10.2851 27.7143V23.8043L13.5985 20.6281C13.7663 20.4748 13.9893 20.3892 14.2211 20.3892C14.453 20.3892 14.676 20.4748 14.8438 20.6281L18.4657 24.1L23.3786 28.8095H11.4276ZM26.2807 27.7143C26.279 27.9239 26.2069 28.1275 26.075 28.2948L20.9221 23.3333L21.7219 22.5667C21.8038 22.4865 21.9016 22.4229 22.0095 22.3794C22.1174 22.3359 22.2333 22.3135 22.3503 22.3135C22.4674 22.3135 22.5832 22.3359 22.6911 22.3794C22.799 22.4229 22.8968 22.4865 22.9787 22.5667L26.2807 25.7538V27.7143Z" fill="white"/>
</svg>
