<svg width="112" height="112" viewBox="0 0 112 112" fill="none" xmlns="http://www.w3.org/2000/svg">
<circle cx="55.8999" cy="55.6293" r="55.6293" fill="#065374"/>
<path d="M79.6322 62.1583H78.3933V54.2474C78.3933 53.318 77.9984 52.4252 77.3015 51.7665L69.5662 44.4557C68.8693 43.7971 67.9246 43.4239 66.9413 43.4239H63.5266V39.9111C63.5266 37.9718 61.8618 36.3984 59.8099 36.3984H39.9877C37.9358 36.3984 36.271 37.9718 36.271 39.9111V43.4239H31.9349C31.5942 43.4239 31.3154 43.6873 31.3154 44.0093V45.1802C31.3154 45.5022 31.5942 45.7657 31.9349 45.7657H52.996C53.3367 45.7657 53.6155 46.0291 53.6155 46.3511V47.522C53.6155 47.844 53.3367 48.1075 52.996 48.1075H34.4127C34.072 48.1075 33.7932 48.3709 33.7932 48.6929V49.8638C33.7932 50.1858 34.072 50.4493 34.4127 50.4493H50.5182C50.8589 50.4493 51.1377 50.7127 51.1377 51.0347V52.2056C51.1377 52.5276 50.8589 52.7911 50.5182 52.7911H31.9349C31.5942 52.7911 31.3154 53.0545 31.3154 53.3765V54.5474C31.3154 54.8694 31.5942 55.1329 31.9349 55.1329H48.0405C48.3811 55.1329 48.6599 55.3963 48.6599 55.7183V56.8892C48.6599 57.2112 48.3811 57.4747 48.0405 57.4747H36.271V66.8419C36.271 70.7205 39.6005 73.8673 43.7043 73.8673C47.8082 73.8673 51.1377 70.7205 51.1377 66.8419H61.0488C61.0488 70.7205 64.3783 73.8673 68.4821 73.8673C72.586 73.8673 75.9155 70.7205 75.9155 66.8419H79.6322C80.3135 66.8419 80.871 66.315 80.871 65.671V63.3292C80.871 62.6852 80.3135 62.1583 79.6322 62.1583ZM43.7043 70.3546C41.6524 70.3546 39.9877 68.7812 39.9877 66.8419C39.9877 64.9026 41.6524 63.3292 43.7043 63.3292C45.7562 63.3292 47.421 64.9026 47.421 66.8419C47.421 68.7812 45.7562 70.3546 43.7043 70.3546ZM68.4821 70.3546C66.4302 70.3546 64.7655 68.7812 64.7655 66.8419C64.7655 64.9026 66.4302 63.3292 68.4821 63.3292C70.5341 63.3292 72.1988 64.9026 72.1988 66.8419C72.1988 68.7812 70.5341 70.3546 68.4821 70.3546ZM74.6766 55.1329H63.5266V46.9366H66.9413L74.6766 54.2474V55.1329Z" fill="white"/>
</svg>
