<svg width="774" height="581" viewBox="0 0 774 581" fill="none" xmlns="http://www.w3.org/2000/svg">
<g clip-path="url(#clip0_898_2816)">
<path d="M364.781 579.034H333.804V340.542H358.997C360.217 340.542 361.388 341.025 362.253 341.886C363.118 342.747 363.607 343.916 363.613 345.136L364.781 579.034Z" fill="#6B6B6B"/>
<path d="M336.699 580.297H4.03711V410.449H336.699V580.297Z" fill="white"/>
<path d="M205.581 579.665H4.66895V411.081H336.068V449.136C336.029 483.743 322.269 516.921 297.806 541.391C273.343 565.861 240.176 579.626 205.581 579.665Z" fill="#2F2E41"/>
<path d="M359.737 347.316C359.57 347.633 359.44 347.968 359.35 348.314L347.879 392.543L335.437 416.115H5.30078V410.244L24.0965 392.543L46.0227 350.59C46.9906 348.738 48.2617 347.061 49.7832 345.629C53.2549 342.361 57.8422 340.542 62.6092 340.542H355.656C356.451 340.542 357.233 340.748 357.926 341.139C358.619 341.531 359.199 342.094 359.609 342.776C360.02 343.458 360.247 344.234 360.27 345.029C360.292 345.825 360.109 346.613 359.737 347.316Z" fill="#F2F2F2"/>
<path d="M336.699 580.297H4.03711V410.449H336.699V580.297ZM6.56239 577.771H334.174V412.976H6.56239V577.771Z" fill="#E6E6E6"/>
<path d="M354.008 369.943L347.879 392.544H24.0967L34.5589 373.732L354.008 369.943Z" fill="#6B6B6B"/>
<path d="M69.3333 499.452H16.3037V502.388H69.3333V499.452Z" fill="white"/>
<path d="M69.3333 509.727H16.3037V512.662H69.3333V509.727Z" fill="white"/>
<path d="M69.3333 520.001H16.3037V522.936H69.3333V520.001Z" fill="white"/>
<path d="M36.846 466.752C47.3806 466.752 55.9205 458.209 55.9205 447.671C55.9205 437.134 47.3806 428.591 36.846 428.591C26.3114 428.591 17.7715 437.134 17.7715 447.671C17.7715 458.209 26.3114 466.752 36.846 466.752Z" fill="white"/>
<path d="M245.907 379.725H229.707V255.005H242.882C243.52 255.005 244.132 255.258 244.585 255.708C245.037 256.158 245.293 256.769 245.296 257.407L245.907 379.725Z" fill="#6B6B6B"/>
<path d="M231.221 380.386H57.2539V291.564H231.221V380.386Z" fill="white"/>
<path d="M162.653 380.056H57.585V291.895H230.891V311.796C230.871 329.893 223.675 347.244 210.882 360.041C198.089 372.837 180.744 380.036 162.653 380.056Z" fill="#F2F2F2"/>
<path d="M243.269 258.548C243.181 258.714 243.114 258.889 243.067 259.07L237.068 282.2L230.561 294.527H57.915V291.456L67.7443 282.2L79.2107 260.26C79.7169 259.292 80.3816 258.415 81.1773 257.666C82.9928 255.957 85.3918 255.005 87.8847 255.005H241.134C241.55 255.005 241.959 255.113 242.322 255.318C242.684 255.522 242.987 255.817 243.202 256.174C243.417 256.53 243.536 256.936 243.547 257.352C243.559 257.768 243.463 258.18 243.269 258.548Z" fill="#F2F2F2"/>
<path d="M231.221 380.386H57.2539V291.564H231.221V380.386ZM58.5745 379.065H229.9V292.885H58.5745V379.065Z" fill="#E6E6E6"/>
<path d="M240.273 270.381L237.068 282.2H67.7451L73.2161 272.362L240.273 270.381Z" fill="#6B6B6B"/>
<path d="M91.4029 338.108H63.6709V339.643H91.4029V338.108Z" fill="white"/>
<path d="M91.4029 343.481H63.6709V345.017H91.4029V343.481Z" fill="white"/>
<path d="M91.4029 348.854H63.6709V350.389H91.4029V348.854Z" fill="white"/>
<path d="M74.4126 321.007C79.9217 321.007 84.3877 316.54 84.3877 311.029C84.3877 305.518 79.9217 301.051 74.4126 301.051C68.9035 301.051 64.4375 305.518 64.4375 311.029C64.4375 316.54 68.9035 321.007 74.4126 321.007Z" fill="white"/>
<path d="M723.341 580.211L723.24 579.672C721.601 570.631 721.95 561.341 724.262 552.449C726.574 543.556 730.795 535.274 736.63 528.178C739.935 524.223 743.724 520.701 747.909 517.694L748.308 517.406L748.482 517.865C750.564 523.355 753.191 528.853 754.388 531.286L755.196 513.121L755.657 512.876C757.769 511.744 760.172 511.27 762.556 511.516C764.939 511.762 767.195 512.717 769.031 514.257C770.931 515.784 772.33 517.845 773.048 520.175C773.767 522.504 773.771 524.996 773.061 527.328C772.433 529.463 771.84 531.676 771.267 533.817C769.296 541.175 767.259 548.782 763.31 555.188C760.273 560.008 756.199 564.088 751.384 567.131C746.569 570.174 741.136 572.103 735.48 572.776L723.341 580.211Z" fill="#F2F2F2"/>
<path d="M773.583 579.989C773.583 580.186 773.545 580.382 773.47 580.565C773.394 580.747 773.284 580.913 773.144 581.053C773.004 581.193 772.839 581.303 772.656 581.379C772.473 581.454 772.278 581.492 772.08 581.492H-31.3266C-31.7251 581.492 -32.1072 581.333 -32.389 581.051C-32.6708 580.77 -32.8291 580.387 -32.8291 579.989C-32.8291 579.59 -32.6708 579.208 -32.389 578.926C-32.1072 578.644 -31.7251 578.486 -31.3266 578.486H772.08C772.278 578.485 772.473 578.524 772.656 578.599C772.839 578.674 773.004 578.785 773.144 578.925C773.284 579.064 773.394 579.23 773.47 579.413C773.545 579.595 773.583 579.791 773.583 579.989Z" fill="#CCCCCC"/>
<path d="M591.353 195.423L568.356 192.128C560.579 205.137 557.815 239.763 557.815 239.763L535.31 293.272C533.819 294.284 532.622 295.672 531.838 297.295C531.054 298.917 530.711 300.718 530.844 302.516C530.977 304.313 531.581 306.044 532.595 307.533C533.609 309.023 534.998 310.219 536.621 311.002C538.244 311.784 540.044 312.125 541.841 311.989C543.638 311.854 545.367 311.248 546.855 310.232C548.343 309.216 549.537 307.825 550.317 306.201C551.098 304.576 551.436 302.775 551.299 300.977L588.25 238.696L591.353 195.423Z" fill="#FFB8B8"/>
<path d="M587.692 131.561C591.252 132.112 594.646 133.441 597.633 135.454C600.621 137.467 603.128 140.113 604.977 143.206C606.825 146.298 607.97 149.759 608.329 153.344C608.689 156.929 608.254 160.55 607.055 163.947L602.175 177.784C602.175 177.784 599.519 219.445 589.388 231.205L558.301 228.39C558.301 228.39 563.985 207.371 559.621 197.201C556.949 190.973 557.097 169.462 559.73 151.964C560.224 148.786 561.339 145.737 563.012 142.991C564.685 140.245 566.883 137.856 569.481 135.961C572.078 134.065 575.023 132.701 578.148 131.946C581.273 131.191 584.517 131.06 587.692 131.561Z" fill="#E6E6E6"/>
<path d="M663.692 563.846L649.839 563.844L643.25 510.396L663.694 510.398L663.692 563.846Z" fill="#FFB6B6"/>
<path d="M664.178 578.3L621.58 578.299V577.76C621.58 573.361 623.327 569.143 626.437 566.032C629.546 562.922 633.763 561.175 638.16 561.174H638.161L645.942 555.27L660.46 561.175L664.178 561.176L664.178 578.3Z" fill="#2F2E41"/>
<path d="M603.466 497.605L590.67 502.911L564.114 456.066L583.001 448.232L603.466 497.605Z" fill="#FFB6B6"/>
<path d="M609.453 510.77L570.104 527.092L569.897 526.594C568.213 522.531 568.211 517.965 569.892 513.9C571.573 509.836 574.8 506.606 578.861 504.92L578.862 504.92L583.788 496.484L599.46 496.376L602.895 494.951L609.453 510.77Z" fill="#2F2E41"/>
<path d="M679.529 259.802L581.222 270.076L568.071 314.381L522.531 387.59L572.814 480.003L590.522 464.104L573.524 389.479L624.259 334.69L633.879 330.697L641.515 534.006L669.761 534.47L682.121 310.131C688.06 290.313 686.272 273.949 679.529 259.802Z" fill="#065374"/>
<path d="M643.486 119.544L627.35 101.369L601.853 104.203L585.529 127.055C576.84 129.053 569.247 134.307 564.313 141.734C559.378 149.162 557.477 158.199 559 166.986C565.335 203.474 586.862 238.863 579.754 256.866C568.963 284.194 568.305 295.34 594.134 291.509C619.963 287.677 706.496 278.844 689.719 262.062C672.942 245.28 669.257 217.237 669.257 217.237L668.585 153.078C669.298 149.209 669.203 145.233 668.306 141.402C667.408 137.571 665.728 133.967 663.37 130.818C661.013 127.668 658.029 125.04 654.607 123.1C651.185 121.16 647.398 119.949 643.486 119.544L643.486 119.544Z" fill="#E6E6E6"/>
<path d="M611.953 96.7186C627.584 96.7186 640.255 84.043 640.255 68.4069C640.255 52.7708 627.584 40.0952 611.953 40.0952C596.321 40.0952 583.65 52.7708 583.65 68.4069C583.65 84.043 596.321 96.7186 611.953 96.7186Z" fill="#FFB8B8"/>
<path d="M646.828 66.7254C645.564 72.4617 643.284 77.9254 640.096 82.8583C639.25 84.5404 637.985 85.9764 636.424 87.0286C635.634 87.5359 634.691 87.75 633.759 87.6335C632.827 87.5169 631.966 87.0773 631.324 86.391L630.636 85.8298C631.986 84.9975 633.192 83.9508 634.206 82.7308C634.708 82.1185 635.056 81.3952 635.223 80.6211C635.389 79.847 635.368 79.0443 635.162 78.2799C634.918 77.5259 634.39 76.8961 633.691 76.5228C632.993 76.1494 632.176 76.0615 631.414 76.2776C629.756 76.9281 628.749 79.3257 627.015 78.9559C625.613 78.6497 625.32 76.8005 625.32 75.3466C625.37 67.7456 621.699 56.9436 618.856 57.2752C615.983 57.4323 613.107 57.0472 610.377 56.1402C607.644 55.2315 604.76 54.8633 601.886 55.0561C601.682 55.0816 601.478 55.1199 601.262 55.1581C600.801 53.714 600.167 52.3309 599.375 51.0388C599.464 52.5985 599.387 54.1632 599.145 55.7065C596.858 56.6493 594.496 57.396 592.082 57.9383C589.456 58.3082 583.68 66.1642 583.413 65.3608C582.952 63.9166 582.318 62.5335 581.526 61.2414C581.615 62.8011 581.538 64.3658 581.296 65.9091C581.284 65.9729 581.284 66.024 581.271 66.0877C579.996 64.3914 579.218 62.3255 579.652 63.9069C575.381 54.2399 577.038 47.3149 583.757 39.1655C585.066 37.4132 586.799 36.0222 588.793 35.1227C589.791 34.684 590.886 34.5098 591.971 34.617C593.056 34.7243 594.096 35.1092 594.989 35.7349C597.729 33.2216 601.092 31.4872 604.728 30.7113C608.364 29.9354 612.141 30.1464 615.668 31.3222C622.668 33.7581 628.061 35.1865 629.131 42.5324C634.92 41.6014 640.874 44.8918 644.061 49.8017C647.236 54.7246 647.886 60.9736 646.828 66.7254Z" fill="#2F2E41"/>
<path d="M623.875 301.88H614.482V229.56H622.121C622.492 229.56 622.846 229.706 623.109 229.967C623.371 230.228 623.519 230.583 623.521 230.953L623.875 301.88Z" fill="#3F3D56"/>
<path d="M615.359 302.263H514.482V250.758H615.359V302.263Z" fill="white"/>
<path d="M575.6 302.072H514.675V250.95H615.169V262.49C615.158 272.984 610.985 283.045 603.567 290.465C596.149 297.886 586.091 302.06 575.6 302.072Z" fill="#065374"/>
<path d="M622.347 231.614C622.296 231.71 622.257 231.811 622.229 231.916L618.751 245.329L614.978 252.477H514.867V250.696L520.566 245.329L527.215 232.607C527.509 232.045 527.894 231.537 528.356 231.102C529.408 230.111 530.8 229.56 532.245 229.56H621.109C621.35 229.56 621.587 229.622 621.798 229.741C622.008 229.859 622.183 230.03 622.308 230.237C622.432 230.444 622.501 230.679 622.508 230.92C622.515 231.162 622.459 231.4 622.347 231.614Z" fill="#3F3D56"/>
<path d="M615.359 302.263H514.482V250.758H615.359V302.263ZM515.248 301.497H614.593V251.524H515.248V301.497Z" fill="#3F3D56"/>
<path d="M620.608 238.474L618.75 245.328H520.566L523.738 239.623L620.608 238.474Z" fill="#065374"/>
<path d="M534.283 277.748H518.202V278.638H534.283V277.748Z" fill="white"/>
<path d="M534.283 280.863H518.202V281.753H534.283V280.863Z" fill="white"/>
<path d="M534.283 283.978H518.202V284.868H534.283V283.978Z" fill="white"/>
<path d="M524.432 267.832C527.627 267.832 530.216 265.241 530.216 262.046C530.216 258.85 527.627 256.26 524.432 256.26C521.238 256.26 518.648 258.85 518.648 262.046C518.648 265.241 521.238 267.832 524.432 267.832Z" fill="white"/>
<path d="M663.12 188.811L640.124 185.517C632.346 198.526 629.583 233.152 629.583 233.152L607.077 286.66C605.587 287.673 604.389 289.061 603.605 290.683C602.821 292.306 602.479 294.107 602.611 295.904C602.744 297.702 603.348 299.432 604.362 300.922C605.376 302.412 606.765 303.608 608.388 304.39C610.011 305.173 611.812 305.513 613.609 305.378C615.405 305.243 617.135 304.637 618.623 303.621C620.111 302.604 621.305 301.214 622.085 299.589C622.865 297.965 623.204 296.163 623.066 294.366L660.018 232.085L663.12 188.811Z" fill="#FFB8B8"/>
<path d="M650.657 124.947C654.216 125.499 657.61 126.828 660.597 128.841C663.585 130.854 666.092 133.5 667.941 136.592C669.79 139.685 670.934 143.146 671.293 146.731C671.653 150.316 671.218 153.936 670.019 157.334L665.139 171.17C665.139 171.17 671.286 212.832 661.156 224.592L630.069 221.777C630.069 221.777 635.752 200.758 631.389 190.588C628.716 184.36 628.865 162.849 631.498 145.351C633.509 131.989 637.308 122.88 650.657 124.947Z" fill="#E6E6E6"/>
<path d="M455.388 56.0161C444.152 61.6213 435.603 71.4616 431.62 83.3723C427.638 95.283 428.549 108.288 434.152 119.527C445.821 142.931 487.986 182.847 521.628 188.878C507.157 144.924 527.278 100.247 518.879 77.2585C509.904 52.6946 478.784 44.3439 455.388 56.0161Z" fill="#FF4B4B"/>
<path d="M471.157 111.678C479.684 111.678 486.596 104.764 486.596 96.2344C486.596 87.705 479.684 80.7905 471.157 80.7905C462.631 80.7905 455.718 87.705 455.718 96.2344C455.718 104.764 462.631 111.678 471.157 111.678Z" fill="white"/>
<path d="M521.331 213.666C526.916 213.666 531.444 209.138 531.444 203.551C531.444 197.964 526.916 193.436 521.331 193.436C515.747 193.436 511.219 197.964 511.219 203.551C511.219 209.138 515.747 213.666 521.331 213.666Z" fill="#FF4B4B"/>
<path opacity="0.2" d="M475.864 80C477.891 79.9296 479.912 80.2595 481.812 80.9709C483.712 81.6823 485.453 82.7612 486.936 84.146C488.418 85.5308 489.614 87.1943 490.453 89.0415C491.293 90.8886 491.761 92.8832 491.829 94.9113C491.898 96.9393 491.567 98.961 490.854 100.861C490.141 102.761 489.061 104.501 487.675 105.983C486.29 107.465 484.626 108.66 482.778 109.498C480.931 110.336 478.937 110.803 476.909 110.87C480.345 109.591 483.214 107.131 485.003 103.93C486.792 100.729 487.383 96.9962 486.671 93.3989C485.96 89.8016 483.991 86.575 481.119 84.2967C478.246 82.0184 474.657 80.837 470.993 80.9641C472.554 80.382 474.199 80.0565 475.864 80Z" fill="#231F20"/>
<path opacity="0.2" d="M518.955 77.2665C527.355 100.255 507.233 144.932 521.705 188.886C518.529 188.301 515.401 187.482 512.347 186.436C500.556 143.946 519.062 101.488 510.946 79.2775C503.683 59.3983 481.916 50.1401 461.477 53.5176C483.91 45.8646 510.73 54.756 518.955 77.2665Z" fill="#231F20"/>
<path d="M45.0253 290.552C33.3948 290.272 22.1299 294.626 13.7084 302.655C5.28704 310.684 0.399016 321.731 0.119742 333.365C-0.461794 357.592 16.7823 408.561 41.7238 428.084C48.9119 385.811 84.7458 357.941 87.8247 335.471C91.1147 311.462 69.2443 291.133 45.0253 290.552Z" fill="#FF4B4B"/>
<path d="M40.5217 344.638C48.4226 344.638 54.8276 338.231 54.8276 330.328C54.8276 322.425 48.4226 316.018 40.5217 316.018C32.6208 316.018 26.2158 322.425 26.2158 330.328C26.2158 338.231 32.6208 344.638 40.5217 344.638Z" fill="white"/>
<path d="M35.1269 449.346C40.3018 449.346 44.4969 445.149 44.4969 439.973C44.4969 434.796 40.3018 430.6 35.1269 430.6C29.9519 430.6 25.7568 434.796 25.7568 439.973C25.7568 445.149 29.9519 449.346 35.1269 449.346Z" fill="#FF4B4B"/>
<path opacity="0.2" d="M51.4085 319.071C54.8203 320.732 57.433 323.68 58.6719 327.267C59.9109 330.854 59.6744 334.787 58.0147 338.2C57.1929 339.89 56.0464 341.401 54.6407 342.648C53.235 343.894 51.5975 344.852 49.8219 345.466C46.2358 346.705 42.3044 346.468 38.8926 344.808C42.2605 345.25 45.6759 344.479 48.5275 342.633C51.379 340.787 53.4806 337.985 54.4561 334.73C55.4316 331.476 55.2172 327.98 53.8514 324.869C52.4857 321.757 50.0576 319.234 47.0018 317.75C48.5323 317.95 50.0205 318.396 51.4085 319.071Z" fill="#231F20"/>
<path opacity="0.2" d="M87.8854 335.512C84.8065 357.981 48.9726 385.851 41.7846 428.124C39.4372 426.269 37.2302 424.242 35.1816 422.061C43.9309 382.149 77.4798 355.396 80.4546 333.687C83.1171 314.257 69.3002 297.239 51.0966 291.146C72.785 294.601 90.9003 313.509 87.8854 335.512Z" fill="#231F20"/>
<path d="M211.446 104.094C208.177 104.308 205.121 105.789 202.927 108.223C200.734 110.656 199.576 113.85 199.701 117.125C199.737 117.79 199.827 118.451 199.972 119.101L162.854 142.493L183.375 151.572L215.477 127.967C218.126 127.157 220.432 125.493 222.036 123.235C223.64 120.976 224.452 118.25 224.344 115.482C224.267 113.907 223.882 112.363 223.209 110.937C222.536 109.512 221.588 108.233 220.421 107.173C219.254 106.114 217.89 105.295 216.406 104.763C214.923 104.231 213.349 103.997 211.775 104.073C211.665 104.079 211.555 104.085 211.446 104.094Z" fill="#FFB6B6"/>
<path d="M175.65 131.861L184.849 150.848L148.475 174.262C145.887 175.942 142.912 176.933 139.834 177.139C136.755 177.345 133.675 176.761 130.886 175.441C127.495 173.817 124.724 171.135 122.989 167.798C121.255 164.462 120.652 160.652 121.271 156.943L133.073 89.5407C133.866 84.8239 136.435 80.5902 140.252 77.7103C144.07 74.8303 148.845 73.5232 153.597 74.0576C155.911 74.3107 158.153 75.0174 160.194 76.1372C162.235 77.257 164.036 78.768 165.494 80.584C166.951 82.4 168.037 84.4853 168.689 86.721C169.341 88.9567 169.546 91.299 169.293 93.614C169.273 93.7969 169.25 93.9795 169.224 94.1617C169.135 94.8093 169.011 95.4517 168.853 96.086L155.968 144.021L175.65 131.861Z" fill="#065374"/>
<path d="M178.236 161.295H126.218V213.33H178.236V161.295Z" fill="#FFB8B8"/>
<path d="M301.597 314.543L321.464 307.857L332.527 361.951L319.065 366.48L301.597 314.543Z" fill="#FFB6B6"/>
<path d="M267.927 310.385L287.633 303.239L299.951 357.06L286.599 361.901L267.927 310.385Z" fill="#FFB6B6"/>
<path d="M128.083 226.925C117.657 296.454 256.499 255.347 256.499 255.347L300.032 315.42L325.518 310.784C325.518 310.784 314.05 274.721 293.57 226.376C284.475 204.907 181.199 210.153 181.199 210.153L179.055 193.319L119.974 192.16L128.083 226.925Z" fill="#2F2E41"/>
<path d="M228.375 260.008L260.481 240.006C283.985 286.954 290.913 307.286 290.913 307.286L268.693 313.537L228.375 260.008Z" fill="#2F2E41"/>
<path d="M157.8 76.7377L147.329 63.2748L132.394 62.627L130.903 75.289L123.503 78.7026C116.113 106.785 114.972 136.147 120.159 164.718C121.151 165.653 121.876 166.834 122.259 168.142C122.642 169.45 122.669 170.836 122.337 172.158L121.857 174.071L121.902 174.141C123.477 176.627 124.011 179.632 123.389 182.509L119.855 188.791C118.587 191.05 117.826 193.558 117.625 196.141C117.424 198.724 117.787 201.32 118.691 203.749C119.594 206.177 121.016 208.379 122.856 210.202C124.696 212.025 126.912 213.426 129.348 214.306C151.072 222.183 171.437 225.117 186.503 203.013L191.24 125.985L157.8 76.7377Z" fill="#065374"/>
<path d="M146.831 66.8502C162.082 66.8502 174.446 54.4826 174.446 39.2264C174.446 23.9702 162.082 11.6025 146.831 11.6025C131.58 11.6025 119.216 23.9702 119.216 39.2264C119.216 54.4826 131.58 66.8502 146.831 66.8502Z" fill="#FFB8B8"/>
<path d="M132.969 5.92638C121.276 6.15109 112.002 17.0003 112.255 30.1587C103.602 39.1902 101.506 83.6127 108.736 95.4303C121.962 96.9661 130.007 64.2347 141.605 68.9664L143.133 61.8232L146.597 71.1254C149.545 72.4847 152.47 73.9768 155.373 75.6016C157.459 66.0291 156.942 56.7244 151.335 48.6198C146.353 41.4197 158.476 32.8719 167.146 34.08L167.019 27.4671L169.197 34.0406C172.576 36.5248 176.315 35.6254 180.148 33.8301C186.365 1.51115 138.235 -7.32706 132.969 5.92638Z" fill="#2F2E41"/>
<path d="M312.946 375.629L321.798 374.473L322.286 365.907L327.424 373.738L350.899 370.67C352.024 370.523 353.073 370.02 353.893 369.235C354.712 368.449 355.259 367.422 355.453 366.304C355.648 365.186 355.48 364.034 354.974 363.018C354.468 362.002 353.651 361.174 352.641 360.656L332.203 350.154L331.1 341.703L311.535 345.457L312.946 375.629Z" fill="#2F2E41"/>
<path d="M289.569 375.706L297.598 371.806L295.35 363.526L302.703 369.327L323.999 358.982C325.02 358.486 325.856 357.677 326.385 356.672C326.913 355.668 327.107 354.521 326.937 353.398C326.768 352.276 326.244 351.237 325.443 350.433C324.641 349.629 323.604 349.103 322.482 348.931L299.772 345.443L296.05 337.776L278.68 347.533L289.569 375.706Z" fill="#2F2E41"/>
<path d="M168.353 191.498H178.199V115.693H170.191C169.803 115.693 169.431 115.846 169.156 116.12C168.881 116.394 168.726 116.765 168.724 117.153L168.353 191.498Z" fill="#CCCCCC"/>
<path d="M177.278 137.913H283.014V191.899H177.278V137.913Z" fill="white"/>
<path d="M177.479 150.21V138.114H282.814V191.698H218.954C207.958 191.686 197.416 187.311 189.64 179.533C181.865 171.755 177.491 161.209 177.479 150.21Z" fill="#F2F2F2"/>
<path d="M169.954 117.846C170.007 117.947 170.048 118.053 170.077 118.163L173.723 132.221L177.678 139.714H282.612V137.848L276.637 132.222L269.668 118.887C269.361 118.298 268.957 117.765 268.473 117.31C267.369 116.271 265.911 115.693 264.396 115.693H171.251C170.998 115.693 170.75 115.758 170.53 115.883C170.31 116.007 170.125 116.186 169.995 116.403C169.864 116.62 169.792 116.866 169.785 117.119C169.778 117.372 169.836 117.622 169.954 117.846Z" fill="#F2F2F2"/>
<path d="M177.278 137.913H283.014V191.899H177.278V137.913ZM282.212 191.096H178.08V138.716H282.212L282.212 191.096Z" fill="#A6A6A6"/>
<path d="M171.777 125.037L173.725 132.221H276.639L273.313 126.242L171.777 125.037Z" fill="#CCCCCC"/>
<path d="M279.115 166.202H262.259V167.135H279.115V166.202Z" fill="white"/>
<path d="M279.115 169.468H262.259V170.401H279.115V169.468Z" fill="white"/>
<path d="M279.115 172.734H262.259V173.667H279.115V172.734Z" fill="white"/>
<path d="M272.586 155.809C275.934 155.809 278.649 153.093 278.649 149.744C278.649 146.394 275.934 143.679 272.586 143.679C269.237 143.679 266.523 146.394 266.523 149.744C266.523 153.093 269.237 155.809 272.586 155.809Z" fill="white"/>
<path d="M223.677 58.1069C230.803 57.9357 237.706 60.6034 242.866 65.5232C248.026 70.4429 251.021 77.2116 251.192 84.3403C251.548 99.1851 240.982 130.417 225.699 142.379C221.295 116.476 199.338 99.3991 197.451 85.6312C195.436 70.9197 208.836 58.4633 223.677 58.1069Z" fill="#FF4B4B"/>
<path d="M226.439 91.2486C231.28 91.2486 235.205 87.3228 235.205 82.48C235.205 77.6373 231.28 73.7114 226.439 73.7114C221.597 73.7114 217.673 77.6373 217.673 82.48C217.673 87.3228 221.597 91.2486 226.439 91.2486Z" fill="white"/>
<path d="M229.743 155.406C232.914 155.406 235.485 152.835 235.485 149.663C235.485 146.491 232.914 143.92 229.743 143.92C226.572 143.92 224.002 146.491 224.002 149.663C224.002 152.835 226.572 155.406 229.743 155.406Z" fill="#FF4B4B"/>
<path opacity="0.2" d="M218.317 75.3292C217.282 75.833 216.356 76.5357 215.593 77.3973C214.829 78.259 214.243 79.2626 213.867 80.351C213.491 81.4394 213.333 82.5911 213.402 83.7405C213.471 84.89 213.766 86.0145 214.269 87.05C214.773 88.0855 215.475 89.0116 216.337 89.7755C217.198 90.5394 218.202 91.126 219.29 91.5021C220.378 91.8781 221.529 92.036 222.678 91.9669C223.827 91.8978 224.951 91.6029 225.986 91.0992C223.923 91.3703 221.83 90.8978 220.083 89.7664C218.335 88.6351 217.048 86.9186 216.45 84.9242C215.852 82.9298 215.984 80.7878 216.82 78.8814C217.657 76.975 219.145 75.4289 221.017 74.5195C220.08 74.642 219.168 74.9154 218.317 75.3292Z" fill="#231F20"/>
<path opacity="0.2" d="M197.416 85.6563C199.303 99.4243 221.26 116.502 225.664 142.404C227.103 141.267 228.455 140.025 229.71 138.689C224.349 114.233 203.792 97.8407 201.969 84.5383C200.338 72.6325 208.804 62.2049 219.958 58.4712C206.669 60.5887 195.569 72.1746 197.416 85.6563Z" fill="#231F20"/>
<path d="M208.062 131.023C204.795 130.781 201.563 131.823 199.053 133.929C196.543 136.034 194.953 139.036 194.622 142.296C194.566 142.96 194.564 143.627 194.617 144.291L154.611 162.303L173.674 174.143L208.741 155.224C211.477 154.79 213.992 153.463 215.894 151.449C217.795 149.435 218.977 146.848 219.255 144.091C219.543 140.921 218.561 137.765 216.523 135.319C214.486 132.873 211.56 131.337 208.391 131.048C208.281 131.038 208.172 131.03 208.062 131.023Z" fill="#FFB6B6"/>
<path d="M168.76 153.551L175.236 173.632L135.965 191.768C133.169 193.073 130.085 193.641 127.008 193.418C123.93 193.194 120.961 192.188 118.382 190.493C115.25 188.414 112.877 185.373 111.623 181.829C110.368 178.284 110.3 174.427 111.427 170.839L132.469 105.729C133.908 101.167 137.04 97.3316 141.22 95.0096C145.4 92.6877 150.311 92.0562 154.942 93.2453C157.199 93.8173 159.321 94.8285 161.187 96.2209C163.053 97.6133 164.627 99.3598 165.818 101.361C167.01 103.361 167.796 105.577 168.131 107.882C168.466 110.186 168.344 112.534 167.773 114.792C167.727 114.97 167.679 115.148 167.629 115.325C167.451 115.954 167.238 116.573 166.994 117.179L147.582 162.861L168.76 153.551Z" fill="#065374"/>
</g>
<defs>
<clipPath id="clip0_898_2816">
<rect width="774" height="581" fill="white"/>
</clipPath>
</defs>
</svg>
