<svg width="25" height="25" viewBox="0 0 25 25" fill="none" xmlns="http://www.w3.org/2000/svg">
<path fill-rule="evenodd" clip-rule="evenodd" d="M12.5 25C19.4036 25 25 19.4036 25 12.5C25 5.59644 19.4036 0 12.5 0C5.59644 0 0 5.59644 0 12.5C0 19.4036 5.59644 25 12.5 25ZM8.1925 11.0453C8.0661 12.3852 8.45469 13.7229 9.27921 14.7863C9.26904 14.7953 9.25912 14.8046 9.24946 14.8141L6.44393 17.6201C6.38249 17.6816 6.33376 17.7546 6.30051 17.8349C6.26727 17.9152 6.25015 18.0012 6.25015 18.0881C6.25015 18.1751 6.26727 18.2611 6.30051 18.3414C6.33376 18.4217 6.38249 18.4947 6.44393 18.5561C6.50536 18.6176 6.57829 18.6664 6.65856 18.6996C6.73883 18.7329 6.82486 18.75 6.91174 18.75C6.99862 18.75 7.08465 18.7329 7.16491 18.6996C7.24518 18.6664 7.31811 18.6176 7.37955 18.5561L10.1844 15.7495L10.2129 15.7197C11.2756 16.5466 12.6136 16.9369 13.954 16.8112C15.2945 16.6855 16.5366 16.0532 17.4272 15.0431C18.3178 14.033 18.79 12.7212 18.7473 11.375C18.7047 10.0287 18.1506 8.74943 17.1979 7.79773C16.246 6.8467 14.9678 6.29416 13.6231 6.25253C12.2785 6.21091 10.9685 6.68332 9.95963 7.57366C8.9508 8.464 8.31891 9.70539 8.1925 11.0453ZM9.7783 10.0217C9.98167 9.53893 10.2786 9.10118 10.6519 8.73374C11.398 7.99943 12.4038 7.5898 13.4504 7.59406C14.497 7.59833 15.4995 8.01614 16.2396 8.7565C16.9796 9.49686 17.3972 10.4998 17.4015 11.5468C17.4058 12.5938 16.9963 13.6001 16.2623 14.3464C15.895 14.7199 15.4574 15.017 14.9748 15.2204C14.4922 15.4239 13.9741 15.5297 13.4504 15.5318C12.9267 15.534 12.4078 15.4323 11.9235 15.2328C11.4393 15.0333 10.9993 14.7399 10.629 14.3694C10.2586 13.9989 9.96531 13.5588 9.76587 13.0743C9.56645 12.5899 9.46487 12.0707 9.467 11.5468C9.46913 11.0229 9.57493 10.5046 9.7783 10.0217Z" fill="white"/>
</svg>
