<svg width="25" height="25" viewBox="0 0 25 25" fill="none" xmlns="http://www.w3.org/2000/svg">
<path d="M15.32 24.68L12.7 25L9.68 24.68C4.1375 23.4 0 18.43 0 12.5C0 5.6 5.6 0 12.5 0C19.4 0 25 5.6 25 12.5C25 18.43 20.8625 23.4 15.32 24.68ZM5.02875 16.77C6.86375 19.5075 9.61875 21.25 12.7 21.25C15.78 21.25 18.5362 19.5088 20.37 16.77C18.2897 14.8257 15.5474 13.746 12.7 13.75C9.85214 13.7457 7.10939 14.8255 5.02875 16.77ZM12.5 11.25C13.4946 11.25 14.4484 10.8549 15.1517 10.1517C15.8549 9.44839 16.25 8.49456 16.25 7.5C16.25 6.50544 15.8549 5.55161 15.1517 4.84835C14.4484 4.14509 13.4946 3.75 12.5 3.75C11.5054 3.75 10.5516 4.14509 9.84835 4.84835C9.14509 5.55161 8.75 6.50544 8.75 7.5C8.75 8.49456 9.14509 9.44839 9.84835 10.1517C10.5516 10.8549 11.5054 11.25 12.5 11.25Z" fill="#065374"/>
</svg>
