<svg width="112" height="112" viewBox="0 0 112 112" fill="none" xmlns="http://www.w3.org/2000/svg">
<circle cx="55.812" cy="55.6293" r="55.6293" fill="#065374"/>
<path d="M76.1903 55.1334L71.6784 50.1554L72.3071 43.5715L65.6318 42.1085L62.137 36.3989L55.85 39.0039L49.563 36.3989L46.0682 42.0906L39.3929 43.5359L40.0216 50.1375L35.5098 55.1334L40.0216 60.1114L39.3929 66.713L46.0682 68.1761L49.563 73.8678L55.85 71.245L62.137 73.85L65.6318 68.1583L72.3071 66.6952L71.6784 60.1114L76.1903 55.1334ZM52.3182 63.5549L45.2916 56.757L48.0283 54.1164L52.3182 58.2736L63.1355 47.8002L65.8722 50.4408L52.3182 63.5549Z" fill="white"/>
</svg>
