<svg width="20" height="20" viewBox="0 0 20 20" fill="none" xmlns="http://www.w3.org/2000/svg">
<path fill-rule="evenodd" clip-rule="evenodd" d="M10 20C15.5228 20 20 15.5228 20 10C20 4.47715 15.5228 0 10 0C4.47715 0 0 4.47715 0 10C0 15.5228 4.47715 20 10 20ZM12.2903 15.5973C12.0399 15.8551 11.7001 16 11.3459 16C10.9916 16 10.6519 15.8551 10.4014 15.5973C10.1509 15.3394 10.0102 14.9897 10.0102 14.625C10.0102 14.2603 10.1509 13.9106 10.4014 13.6527C10.6519 13.3949 10.9916 13.25 11.3459 13.25C11.7001 13.25 12.0399 13.3949 12.2903 13.6527C12.5408 13.9106 12.6815 14.2603 12.6815 14.625C12.6815 14.9897 12.5408 15.3394 12.2903 15.5973ZM7.6155 15.5973C7.36502 15.8551 7.02529 16 6.67104 16C6.3168 16 5.97707 15.8551 5.72659 15.5973C5.4761 15.3394 5.33538 14.9897 5.33538 14.625C5.33538 14.2603 5.4761 13.9106 5.72659 13.6527C5.97707 13.3949 6.3168 13.25 6.67104 13.25C7.02529 13.25 7.36502 13.3949 7.6155 13.6527C7.86599 13.9106 8.00671 14.2603 8.00671 14.625C8.00671 14.9897 7.86599 15.3394 7.6155 15.5973ZM15.8191 6.12109C15.7031 6.24446 15.545 6.31653 15.3783 6.32206H14.6096L13.7721 10.2009C13.6454 10.7883 13.3278 11.3136 12.8719 11.6901C12.4159 12.0666 11.8489 12.2718 11.2644 12.2717H6.24764C5.96115 12.2717 5.68287 12.1732 5.45706 11.9917C5.23126 11.8102 5.07089 11.5561 5.00146 11.27L4.03845 7.3045C3.99103 7.10954 3.98742 6.90601 4.02789 6.7094C4.06836 6.51278 4.15184 6.32825 4.27199 6.16984C4.39213 6.01142 4.54578 5.88329 4.72125 5.79519C4.89672 5.70708 5.08939 5.66132 5.28462 5.66138H11.5255C11.6907 5.66913 11.8466 5.74213 11.9608 5.86518C12.075 5.98824 12.1387 6.15187 12.1387 6.32206C12.1387 6.49225 12.075 6.65589 11.9608 6.77894C11.8466 6.902 11.6907 6.97499 11.5255 6.98275H5.28462L6.24764 10.9496H11.2644C11.8668 10.9496 12.3877 10.5192 12.5186 9.91425L13.3554 6.03537C13.4863 5.43038 14.0072 5 14.6096 5H15.3783C15.545 5.00554 15.7031 5.07761 15.8191 5.20097C15.9351 5.32433 16 5.48932 16 5.66103C16 5.83275 15.9351 5.99773 15.8191 6.12109Z" fill="white"/>
</svg>
