<svg width="112" height="112" viewBox="0 0 112 112" fill="none" xmlns="http://www.w3.org/2000/svg">
<circle cx="55.7251" cy="55.6293" r="55.6293" fill="#065374"/>
<path d="M48.3576 62.9363C47.6793 62.3003 48.0329 62.4796 46.3968 62.0691C45.6545 61.8825 45.0019 61.5239 44.4117 61.0943L40.8702 69.2349C40.5275 70.023 41.1676 70.8792 42.0746 70.847L46.1876 70.6999L49.0165 73.5013C49.6409 74.1189 50.7369 73.9264 51.0796 73.1383L55.1426 63.7991C54.2964 64.2411 53.3573 64.5001 52.3863 64.5001C50.8641 64.5001 49.4341 63.9447 48.3576 62.9363ZM70.6576 69.2349L67.1161 61.0943C66.526 61.5246 65.8734 61.8825 65.131 62.0691C63.4863 62.4818 63.847 62.3018 63.1702 62.9363C62.0938 63.9447 60.6629 64.5001 59.1408 64.5001C58.1697 64.5001 57.2307 64.2403 56.3845 63.7991L60.4475 73.1383C60.7902 73.9264 61.8869 74.1189 62.5106 73.5013L65.3402 70.6999L69.4532 70.847C70.3602 70.8792 71.0003 70.0223 70.6576 69.2349ZM61.3061 61.2802C62.4989 60.1423 62.6355 60.2403 64.3341 59.8064C65.4183 59.529 66.266 58.7204 66.5564 57.6856C67.1403 55.6073 66.9889 55.8583 68.582 54.3376C69.3759 53.5802 69.6858 52.4759 69.3954 51.4412C68.8123 49.3643 68.8115 49.6541 69.3954 47.5751C69.6858 46.5403 69.3759 45.436 68.582 44.6786C66.9889 43.1579 67.1403 43.4082 66.5564 41.3306C66.266 40.2959 65.4183 39.4872 64.3341 39.2099C62.1578 38.653 62.42 38.7986 60.8253 37.2772C60.0314 36.5198 58.8738 36.2234 57.7896 36.5007C55.614 37.0569 55.9177 37.0576 53.7383 36.5007C52.654 36.2234 51.4964 36.519 50.7026 37.2772C49.1094 38.7979 49.3716 38.653 47.1946 39.2099C46.1103 39.4872 45.2626 40.2959 44.9722 41.3306C44.3891 43.4082 44.5398 43.1579 42.9466 44.6786C42.1527 45.436 41.842 46.5403 42.1332 47.5751C42.7163 49.6505 42.7171 49.3607 42.1332 51.4404C41.8428 52.4752 42.1527 53.5795 42.9466 54.3376C44.5398 55.8583 44.3883 55.6073 44.9722 57.6856C45.2626 58.7204 46.1103 59.529 47.1946 59.8064C48.9415 60.2528 49.0719 60.1825 50.2217 61.2802C51.2544 62.2659 52.8632 62.4423 54.1044 61.7061C54.6007 61.4107 55.1764 61.2539 55.7643 61.2539C56.3522 61.2539 56.9279 61.4107 57.4242 61.7061C58.6646 62.4423 60.2734 62.2659 61.3061 61.2802ZM48.3998 49.2758C48.3998 45.395 51.697 42.249 55.7639 42.249C59.8308 42.249 63.128 45.395 63.128 49.2758C63.128 53.1565 59.8308 56.3025 55.7639 56.3025C51.697 56.3025 48.3998 53.1565 48.3998 49.2758Z" fill="white"/>
</svg>
