<svg width="20" height="20" viewBox="0 0 20 20" fill="none" xmlns="http://www.w3.org/2000/svg">
<path d="M6.625 6.5H2.125C1.85978 6.5 1.60543 6.39464 1.41789 6.20711C1.23036 6.01957 1.125 5.76522 1.125 5.5V1C1.125 0.734784 1.23036 0.48043 1.41789 0.292893C1.60543 0.105357 1.85978 0 2.125 0C2.39022 0 2.64457 0.105357 2.83211 0.292893C3.01964 0.48043 3.125 0.734784 3.125 1V4.5H6.625C6.89022 4.5 7.14457 4.60536 7.33211 4.79289C7.51964 4.98043 7.625 5.23478 7.625 5.5C7.625 5.76522 7.51964 6.01957 7.33211 6.20711C7.14457 6.39464 6.89022 6.5 6.625 6.5Z" fill="#E9A426"/>
<path d="M19.0004 11.0006C18.7352 11.0006 18.4808 10.8952 18.2933 10.7077C18.1057 10.5202 18.0004 10.2658 18.0004 10.0006C18.0012 8.24013 17.4208 6.52864 16.3495 5.1317C15.2781 3.73476 13.7757 2.73048 12.0752 2.27471C10.3748 1.81895 8.57146 1.93717 6.94507 2.61104C5.31869 3.2849 3.96019 4.47674 3.08039 6.00159C2.94752 6.23114 2.7289 6.39849 2.47263 6.46685C2.21636 6.53521 1.94344 6.49896 1.71389 6.36609C1.48435 6.23322 1.31699 6.0146 1.24863 5.75833C1.18027 5.50206 1.21652 5.22913 1.34939 4.99959C2.44965 3.09383 4.14808 1.60444 6.1812 0.762477C8.21433 -0.0794815 10.4685 -0.22694 12.594 0.342979C14.7195 0.912897 16.5974 2.16833 17.9366 3.91452C19.2757 5.6607 20.0012 7.80002 20.0004 10.0006C20.0004 10.2658 19.895 10.5202 19.7075 10.7077C19.52 10.8952 19.2656 11.0006 19.0004 11.0006ZM17.8754 20.0006C17.6102 20.0006 17.3558 19.8952 17.1683 19.7077C16.9807 19.5202 16.8754 19.2658 16.8754 19.0006V15.5006H13.3754C13.1102 15.5006 12.8558 15.3952 12.6683 15.2077C12.4807 15.0202 12.3754 14.7658 12.3754 14.5006C12.3754 14.2354 12.4807 13.981 12.6683 13.7935C12.8558 13.6059 13.1102 13.5006 13.3754 13.5006H17.8754C18.1406 13.5006 18.395 13.6059 18.5825 13.7935C18.77 13.981 18.8754 14.2354 18.8754 14.5006V19.0006C18.8754 19.2658 18.77 19.5202 18.5825 19.7077C18.395 19.8952 18.1406 20.0006 17.8754 20.0006Z" fill="#E9A426"/>
<path d="M10 20C7.34881 19.9968 4.80712 18.9422 2.93244 17.0676C1.05776 15.1929 0.00317572 12.6512 0 10C0 9.73478 0.105357 9.48043 0.292893 9.29289C0.48043 9.10536 0.734784 9 1 9C1.26522 9 1.51957 9.10536 1.70711 9.29289C1.89464 9.48043 2 9.73478 2 10C1.99924 11.7605 2.57956 13.472 3.65091 14.8689C4.72225 16.2658 6.22472 17.2701 7.92516 17.7259C9.6256 18.1816 11.4289 18.0634 13.0553 17.3896C14.6817 16.7157 16.0402 15.5239 16.92 13.999C16.9858 13.8853 17.0733 13.7858 17.1776 13.7059C17.2819 13.6261 17.4009 13.5676 17.5278 13.5337C17.6547 13.4999 17.787 13.4914 17.9172 13.5087C18.0473 13.5259 18.1728 13.5687 18.2865 13.6345C18.4002 13.7003 18.4997 13.7878 18.5796 13.8921C18.6594 13.9964 18.7179 14.1154 18.7518 14.2423C18.7856 14.3692 18.7941 14.5015 18.7768 14.6317C18.7596 14.7618 18.7168 14.8873 18.651 15.001C17.7715 16.5175 16.51 17.777 14.9921 18.6541C13.4743 19.5312 11.7531 19.9953 10 20Z" fill="#E9A426"/>
</svg>
