<svg width="127" height="33" viewBox="0 0 127 33" fill="none" xmlns="http://www.w3.org/2000/svg">
<path d="M18.4583 18.9076H21.2076L23.3603 23.1683H23.4498L25.6025 18.9076H28.3518L24.6281 25.6889V29.0894H22.182V25.6889L18.4583 18.9076ZM31.1893 29.2336C30.3906 29.2336 29.7012 29.0762 29.1211 28.7613C28.5444 28.4431 28.1003 27.9907 27.7888 27.4041C27.4805 26.8141 27.3264 26.1131 27.3264 25.3011C27.3264 24.5123 27.4822 23.8229 27.7937 23.2329C28.1053 22.6396 28.5444 22.1789 29.1112 21.8508C29.678 21.5194 30.3458 21.3537 31.1147 21.3537C31.6583 21.3537 32.1555 21.4382 32.6062 21.6072C33.057 21.7762 33.4464 22.0265 33.7745 22.3579C34.1027 22.6894 34.3579 23.0987 34.5402 23.5859C34.7225 24.0698 34.8136 24.625 34.8136 25.2514V25.8579H28.1765V24.446H32.5515C32.5482 24.1875 32.4869 23.9571 32.3676 23.7549C32.2483 23.5528 32.0842 23.3953 31.8754 23.2826C31.6699 23.1666 31.4329 23.1086 31.1645 23.1086C30.8927 23.1086 30.6491 23.1699 30.4336 23.2926C30.2182 23.4119 30.0475 23.576 29.9216 23.7848C29.7956 23.9903 29.7293 24.2239 29.7227 24.4858V25.9225C29.7227 26.2341 29.784 26.5075 29.9066 26.7429C30.0293 26.9749 30.2033 27.1555 30.4287 27.2848C30.654 27.414 30.9225 27.4787 31.2341 27.4787C31.4495 27.4787 31.645 27.4488 31.8207 27.3892C31.9964 27.3295 32.1472 27.2417 32.2731 27.1257C32.3991 27.0097 32.4935 26.8671 32.5565 26.6981L34.7888 26.7627C34.6959 27.2632 34.4921 27.6991 34.1772 28.0703C33.8657 28.4382 33.4564 28.7249 32.9493 28.9304C32.4422 29.1325 31.8555 29.2336 31.1893 29.2336ZM38.4864 24.7343V29.0894H36.0553V21.4531H38.3671V22.8551H38.4516C38.6206 22.3877 38.909 22.0215 39.3166 21.7564C39.7243 21.4879 40.2099 21.3537 40.7733 21.3537C41.3102 21.3537 41.7759 21.4746 42.1703 21.7166C42.568 21.9552 42.8763 22.29 43.095 22.7208C43.3171 23.1484 43.4265 23.6489 43.4232 24.2223V29.0894H40.9921V24.6995C40.9954 24.2753 40.8877 23.9439 40.6689 23.7052C40.4535 23.4666 40.1535 23.3473 39.769 23.3473C39.5138 23.3473 39.2885 23.4036 39.0929 23.5163C38.9007 23.6257 38.7515 23.7831 38.6455 23.9886C38.5427 24.1941 38.4897 24.4427 38.4864 24.7343ZM48.488 32.1122C47.7621 32.1122 47.1407 32.0111 46.6236 31.8089C46.1066 31.6067 45.7006 31.33 45.4056 30.9787C45.1106 30.6273 44.9333 30.2296 44.8736 29.7855L47.1755 29.6562C47.2186 29.812 47.2981 29.9479 47.4141 30.0639C47.5334 30.1799 47.6875 30.2694 47.8765 30.3323C48.0687 30.3953 48.2941 30.4268 48.5526 30.4268C48.9603 30.4268 49.2967 30.3274 49.5618 30.1285C49.8303 29.933 49.9645 29.5899 49.9645 29.0994V27.7571H49.88C49.7839 27.9924 49.6381 28.2028 49.4425 28.3885C49.247 28.5741 49.0034 28.7199 48.7117 28.826C48.4233 28.932 48.0919 28.985 47.7174 28.985C47.1606 28.985 46.6501 28.8558 46.1861 28.5973C45.7254 28.3354 45.3559 27.9311 45.0775 27.3842C44.8024 26.834 44.6648 26.1264 44.6648 25.2613C44.6648 24.3697 44.8073 23.6356 45.0924 23.0589C45.3774 22.4789 45.7503 22.0497 46.211 21.7713C46.675 21.4929 47.1738 21.3537 47.7074 21.3537C48.1085 21.3537 48.4515 21.4233 48.7366 21.5625C49.0249 21.6983 49.2619 21.874 49.4475 22.0894C49.6331 22.3049 49.774 22.5286 49.8701 22.7606H49.9397V21.4531H52.3608V29.1193C52.3608 29.7656 52.1984 30.3108 51.8736 30.7549C51.5488 31.1991 51.0947 31.5355 50.5114 31.7642C49.9281 31.9962 49.2536 32.1122 48.488 32.1122ZM48.5625 27.2152C48.8575 27.2152 49.1094 27.1373 49.3182 26.9815C49.527 26.8257 49.6878 26.602 49.8005 26.3103C49.9132 26.0187 49.9695 25.669 49.9695 25.2613C49.9695 24.847 49.9132 24.4907 49.8005 24.1924C49.6911 23.8908 49.5303 23.6588 49.3182 23.4964C49.1094 23.334 48.8575 23.2528 48.5625 23.2528C48.2609 23.2528 48.0057 23.3357 47.7969 23.5014C47.5881 23.6671 47.429 23.9008 47.3196 24.2024C47.2136 24.5007 47.1606 24.8537 47.1606 25.2613C47.1606 25.669 47.2152 26.0187 47.3246 26.3103C47.434 26.602 47.5914 26.8257 47.7969 26.9815C48.0057 27.1373 48.2609 27.2152 48.5625 27.2152ZM53.9107 29.0894V21.4531H56.3418V29.0894H53.9107ZM55.1288 20.5632C54.7874 20.5632 54.4941 20.4505 54.2488 20.2251C54.0035 19.9964 53.8809 19.7213 53.8809 19.3998C53.8809 19.0816 54.0035 18.8099 54.2488 18.5845C54.4941 18.3558 54.7874 18.2414 55.1288 18.2414C55.4735 18.2414 55.7668 18.3558 56.0087 18.5845C56.254 18.8099 56.3766 19.0816 56.3766 19.3998C56.3766 19.7213 56.254 19.9964 56.0087 20.2251C55.7668 20.4505 55.4735 20.5632 55.1288 20.5632ZM60.3204 18.9076V29.0894H57.8892V18.9076H60.3204ZM65.4324 29.2336C64.627 29.2336 63.9359 29.0679 63.3592 28.7365C62.7859 28.405 62.345 27.9443 62.0368 27.3544C61.7286 26.7611 61.5744 26.075 61.5744 25.2961C61.5744 24.5139 61.7286 23.8278 62.0368 23.2379C62.3484 22.6446 62.7908 22.1822 63.3642 21.8508C63.9409 21.5194 64.6287 21.3537 65.4274 21.3537C66.1334 21.3537 66.7482 21.4813 67.2719 21.7365C67.7989 21.9917 68.2099 22.3529 68.5048 22.8203C68.8031 23.2843 68.9606 23.8295 68.9771 24.4559H66.7051C66.6587 24.0648 66.5261 23.7582 66.3074 23.5362C66.092 23.3141 65.8102 23.2031 65.4622 23.2031C65.1805 23.2031 64.9336 23.2826 64.7215 23.4417C64.5093 23.5975 64.3436 23.8295 64.2243 24.1377C64.1083 24.4427 64.0503 24.8205 64.0503 25.2713C64.0503 25.722 64.1083 26.1032 64.2243 26.4147C64.3436 26.723 64.5093 26.9566 64.7215 27.1157C64.9336 27.2715 65.1805 27.3494 65.4622 27.3494C65.6876 27.3494 65.8865 27.3013 66.0588 27.2052C66.2345 27.1091 66.3787 26.9682 66.4913 26.7826C66.604 26.5937 66.6753 26.365 66.7051 26.0965H68.9771C68.9539 26.7263 68.7965 27.2765 68.5048 27.7471C68.2165 28.2178 67.8105 28.584 67.2868 28.8458C66.7664 29.1044 66.1483 29.2336 65.4324 29.2336ZM70.2213 29.0894V21.4531H72.5828V22.8451H72.6623C72.8015 22.3413 73.0286 21.9668 73.3434 21.7215C73.6583 21.473 74.0245 21.3487 74.4422 21.3487C74.5549 21.3487 74.6709 21.357 74.7902 21.3735C74.9095 21.3868 75.0205 21.4083 75.1233 21.4382V23.5511C75.0073 23.5113 74.8548 23.4798 74.6659 23.4566C74.4803 23.4334 74.3146 23.4218 74.1687 23.4218C73.8804 23.4218 73.6202 23.4865 73.3882 23.6157C73.1595 23.7417 72.9789 23.919 72.8463 24.1477C72.717 24.3731 72.6524 24.6382 72.6524 24.9431V29.0894H70.2213ZM79.287 29.2336C78.4882 29.2336 77.7988 29.0762 77.2188 28.7613C76.6421 28.4431 76.198 27.9907 75.8864 27.4041C75.5782 26.8141 75.4241 26.1131 75.4241 25.3011C75.4241 24.5123 75.5798 23.8229 75.8914 23.2329C76.2029 22.6396 76.6421 22.1789 77.2089 21.8508C77.7756 21.5194 78.4435 21.3537 79.2124 21.3537C79.756 21.3537 80.2531 21.4382 80.7039 21.6072C81.1546 21.7762 81.5441 22.0265 81.8722 22.3579C82.2003 22.6894 82.4555 23.0987 82.6378 23.5859C82.8201 24.0698 82.9113 24.625 82.9113 25.2514V25.8579H76.2742V24.446H80.6492C80.6459 24.1875 80.5846 23.9571 80.4652 23.7549C80.3459 23.5528 80.1819 23.3953 79.9731 23.2826C79.7676 23.1666 79.5306 23.1086 79.2621 23.1086C78.9903 23.1086 78.7467 23.1699 78.5313 23.2926C78.3159 23.4119 78.1452 23.576 78.0192 23.7848C77.8933 23.9903 77.827 24.2239 77.8204 24.4858V25.9225C77.8204 26.2341 77.8817 26.5075 78.0043 26.7429C78.1269 26.9749 78.3009 27.1555 78.5263 27.2848C78.7517 27.414 79.0202 27.4787 79.3317 27.4787C79.5472 27.4787 79.7427 27.4488 79.9184 27.3892C80.094 27.3295 80.2448 27.2417 80.3708 27.1257C80.4967 27.0097 80.5912 26.8671 80.6542 26.6981L82.8864 26.7627C82.7936 27.2632 82.5898 27.6991 82.2749 28.0703C81.9633 28.4382 81.554 28.7249 81.0469 28.9304C80.5398 29.1325 79.9532 29.2336 79.287 29.2336ZM86.942 29.1988C86.3785 29.1988 85.8665 29.053 85.4058 28.7613C84.9451 28.4697 84.5772 28.0322 84.3021 27.4488C84.027 26.8655 83.8894 26.1413 83.8894 25.2762C83.8894 24.378 84.0319 23.6389 84.317 23.0589C84.602 22.4789 84.9749 22.0497 85.4356 21.7713C85.8996 21.4929 86.3984 21.3537 86.932 21.3537C87.3331 21.3537 87.6761 21.4233 87.9612 21.5625C88.2462 21.6983 88.4815 21.874 88.6671 22.0894C88.8527 22.3049 88.9936 22.5286 89.0897 22.7606H89.1394V18.9076H91.5705V29.0894H89.1643V27.8515H89.0897C88.987 28.0868 88.8411 28.3073 88.6522 28.5127C88.4633 28.7182 88.2263 28.884 87.9413 29.0099C87.6595 29.1358 87.3265 29.1988 86.942 29.1988ZM87.7872 27.3046C88.0821 27.3046 88.334 27.2218 88.5428 27.0561C88.7516 26.887 88.9124 26.6501 89.0251 26.3451C89.1378 26.0402 89.1941 25.6822 89.1941 25.2713C89.1941 24.8537 89.1378 24.494 89.0251 24.1924C88.9157 23.8908 88.755 23.6588 88.5428 23.4964C88.334 23.334 88.0821 23.2528 87.7872 23.2528C87.4855 23.2528 87.2303 23.3357 87.0215 23.5014C86.8127 23.6671 86.6536 23.9008 86.5443 24.2024C86.4382 24.504 86.3852 24.8603 86.3852 25.2713C86.3852 25.6822 86.4399 26.0402 86.5492 26.3451C86.6586 26.6501 86.816 26.887 87.0215 27.0561C87.2303 27.2218 87.4855 27.3046 87.7872 27.3046ZM93.108 29.0894V21.4531H95.5391V29.0894H93.108ZM94.326 20.5632C93.9847 20.5632 93.6913 20.4505 93.4461 20.2251C93.2008 19.9964 93.0782 19.7213 93.0782 19.3998C93.0782 19.0816 93.2008 18.8099 93.4461 18.5845C93.6913 18.3558 93.9847 18.2414 94.326 18.2414C94.6707 18.2414 94.9641 18.3558 95.206 18.5845C95.4513 18.8099 95.5739 19.0816 95.5739 19.3998C95.5739 19.7213 95.4513 19.9964 95.206 20.2251C94.9641 20.4505 94.6707 20.5632 94.326 20.5632ZM101.397 21.4531V23.2429H96.5794V21.4531H101.397ZM97.5886 19.6235H100.02V26.6882C100.02 26.8373 100.043 26.9583 100.089 27.0511C100.139 27.1406 100.21 27.2052 100.303 27.245C100.396 27.2814 100.507 27.2997 100.636 27.2997C100.729 27.2997 100.827 27.2914 100.93 27.2748C101.036 27.2549 101.115 27.2384 101.168 27.2251L101.536 28.9801C101.42 29.0132 101.256 29.0546 101.044 29.1044C100.835 29.1541 100.585 29.1856 100.293 29.1988C99.7231 29.2253 99.2342 29.159 98.8266 29C98.4222 28.8376 98.1123 28.5857 97.8969 28.2443C97.6848 27.9029 97.582 27.4737 97.5886 26.9566V19.6235ZM104.004 29.2336C103.647 29.2336 103.34 29.1077 103.085 28.8558C102.833 28.6039 102.709 28.299 102.712 27.941C102.709 27.5897 102.833 27.2897 103.085 27.0412C103.34 26.7893 103.647 26.6633 104.004 26.6633C104.343 26.6633 104.641 26.7893 104.899 27.0412C105.161 27.2897 105.294 27.5897 105.297 27.941C105.294 28.1796 105.231 28.3967 105.108 28.5923C104.989 28.7878 104.831 28.9436 104.636 29.0596C104.444 29.1756 104.233 29.2336 104.004 29.2336ZM111.83 25.7933V21.4531H114.256V29.0894H111.939V27.6676H111.86C111.691 28.1349 111.402 28.5061 110.995 28.7812C110.59 29.053 110.101 29.1889 109.528 29.1889C109.008 29.1889 108.55 29.0696 108.156 28.8309C107.761 28.5923 107.455 28.2592 107.236 27.8316C107.017 27.4008 106.906 26.897 106.903 26.3203V21.4531H109.334V25.843C109.337 26.2573 109.447 26.5838 109.662 26.8224C109.878 27.061 110.171 27.1804 110.542 27.1804C110.784 27.1804 111.001 27.1273 111.193 27.0213C111.389 26.9119 111.543 26.7545 111.656 26.549C111.772 26.3402 111.83 26.0883 111.83 25.7933ZM115.823 29.0894V27.7024L119.363 23.392V23.3423H115.947V21.4531H122.261V22.9744L118.98 27.1505V27.2002H122.381V29.0894H115.823Z" fill="#1D4D79"/>
<path d="M22.6042 17.4129C23.2816 17.5282 23.9358 17.0978 23.9859 16.4437C24.1858 13.8362 23.4432 11.2282 21.8606 9.06388C20.2781 6.89957 17.968 5.33305 15.3325 4.60956C14.6712 4.42803 14.0213 4.86411 13.9004 5.50989C13.7794 6.15568 14.2344 6.76516 14.8903 6.96376C16.8758 7.565 18.6118 8.77521 19.8162 10.4223C21.0206 12.0694 21.6111 14.0407 21.5157 16.0246C21.4843 16.6799 21.9268 17.2976 22.6042 17.4129Z" fill="#1D4D79"/>
<path d="M10.1544 5.50323C10.0358 4.85706 9.38753 4.41881 8.72562 4.59816C7.36742 4.96614 6.08476 5.56046 4.93824 6.35657C3.45514 7.38638 2.23929 8.72646 1.38415 10.2739C0.5289 11.8214 0.0570629 13.5351 0.00487878 15.2834C-0.0474145 17.0317 0.321255 18.7683 1.08273 20.3596C1.84409 21.951 2.97784 23.3549 4.39707 24.4635C5.8162 25.5721 7.48303 26.3561 9.26952 26.7551C11.056 27.1541 12.9147 27.1575 14.7027 26.7652C16.085 26.4618 17.3967 25.9283 18.5786 25.1919C19.1547 24.8331 19.2325 24.0791 18.7985 23.5701C18.3643 23.0611 17.5829 22.9916 16.9969 23.3354C16.1181 23.851 15.1547 24.2283 14.1437 24.4501C12.7267 24.761 11.2537 24.7583 9.83798 24.4422C8.42224 24.1259 7.10137 23.5047 5.97668 22.6262C4.85199 21.7476 3.95351 20.6351 3.35012 19.3739C2.74672 18.1128 2.45447 16.7366 2.49585 15.351C2.53734 13.9656 2.91125 12.6075 3.58898 11.3812C4.26672 10.1548 5.23017 9.09283 6.40551 8.27672C7.24406 7.69444 8.17464 7.24837 9.15915 6.95382C9.81581 6.75739 10.2729 6.14942 10.1544 5.50323Z" fill="#1D4D79"/>
<path d="M13.1007 1.04068C13.1007 0.465926 12.6119 0 12.009 0C11.406 0 10.9172 0.465926 10.9172 1.04068V9.36608C10.9172 9.94083 11.406 10.4068 12.009 10.4068C12.6119 10.4068 13.1007 9.94083 13.1007 9.36608V1.04068Z" fill="#1D4D79"/>
</svg>
