<svg width="44" height="44" viewBox="0 0 44 44" fill="none" xmlns="http://www.w3.org/2000/svg">
<circle cx="22" cy="22" r="20.5" stroke="#065374" stroke-width="3"/>
<path d="M12.2 31H19.375C22.425 31 24.675 28.8 24.675 25.85C24.675 23.675 23.475 21.95 21.175 21.525C22.575 21 23.4 19.7 23.4 18.025C23.4 15.45 21.25 13.575 18.525 13.575H12.2V31ZM15.35 20.6V16.425H18.125C19.425 16.425 20.325 17.325 20.325 18.45C20.325 19.7 19.425 20.6 18.1 20.6H15.35ZM15.35 28.15V23.225H18.825C20.45 23.225 21.55 24.275 21.55 25.675C21.55 27.075 20.425 28.15 18.85 28.15H15.35ZM27.1994 25.725C27.1994 30.025 30.2994 31.05 32.3744 31.05C32.3994 31.05 32.9994 31.05 32.9994 31.05V28.2H32.8494C31.2744 28.2 30.2244 27.425 30.2244 25.5V21.15H32.9994V18.4H30.2244V13.575H27.1994V25.725Z" fill="#065374"/>
</svg>
