<svg width="34" height="34" viewBox="0 0 34 34" fill="none" xmlns="http://www.w3.org/2000/svg">
<path d="M17 32C25.2843 32 32 25.2843 32 17C32 8.71573 25.2843 2 17 2C8.71573 2 2 8.71573 2 17C2 25.2843 8.71573 32 17 32Z" stroke="white" stroke-width="3"/>
<path d="M8.39631 10.9091H11.0746L14.277 16.7003H14.4048L17.6072 10.9091H20.2855L15.5234 19.1165V24H13.1584V19.1165L8.39631 10.9091ZM25.1851 17.1006C25.0386 17.0127 24.8716 16.9219 24.6841 16.8281C24.4966 16.7285 24.2915 16.6377 24.0689 16.5557C23.8521 16.4736 23.6177 16.4062 23.3657 16.3535C23.1196 16.2949 22.8618 16.2656 22.5923 16.2656C22.27 16.2656 21.9976 16.3008 21.7749 16.3711C21.5581 16.4414 21.3823 16.5322 21.2476 16.6436C21.1187 16.749 21.0249 16.8721 20.9663 17.0127C20.9077 17.1475 20.8784 17.2793 20.8784 17.4082C20.8784 17.5605 20.9019 17.6953 20.9487 17.8125C20.9956 17.9297 21.0923 18.0381 21.2388 18.1377C21.3911 18.2373 21.605 18.334 21.8804 18.4277C22.1558 18.5215 22.5249 18.6211 22.9878 18.7266C23.3862 18.8145 23.7612 18.9287 24.1128 19.0693C24.4644 19.2041 24.772 19.377 25.0357 19.5879C25.2993 19.7988 25.5073 20.0537 25.6597 20.3525C25.812 20.6455 25.8882 20.9971 25.8882 21.4072C25.8882 21.8057 25.8003 22.1748 25.6245 22.5146C25.4487 22.8545 25.2085 23.1533 24.9038 23.4111C24.5991 23.6631 24.2417 23.8594 23.8316 24C23.4214 24.1465 22.979 24.2197 22.5044 24.2197C22.147 24.2197 21.8013 24.1934 21.4673 24.1406C21.1392 24.0879 20.8286 24.0146 20.5357 23.9209C20.2486 23.8271 19.9849 23.7188 19.7446 23.5957C19.5044 23.4727 19.2964 23.3438 19.1206 23.209L19.5601 21.627C19.7593 21.8027 19.982 21.9639 20.228 22.1104C20.48 22.2568 20.7378 22.3828 21.0015 22.4883C21.2652 22.5938 21.5288 22.6758 21.7925 22.7344C22.062 22.7871 22.314 22.8135 22.5484 22.8135C22.8062 22.8135 23.0405 22.7812 23.2515 22.7168C23.4683 22.6465 23.6529 22.5586 23.8052 22.4531C23.9634 22.3418 24.0864 22.2158 24.1743 22.0752C24.2622 21.9287 24.3062 21.7793 24.3062 21.627C24.3062 21.4629 24.271 21.3105 24.2007 21.1699C24.1362 21.0234 24.0132 20.8857 23.8316 20.7568C23.6558 20.6221 23.4097 20.4932 23.0933 20.3701C22.7827 20.2471 22.3814 20.124 21.8892 20.001C21.356 19.8721 20.9195 19.7197 20.5796 19.5439C20.2456 19.3682 19.982 19.1748 19.7886 18.9639C19.6011 18.7529 19.4722 18.5244 19.4019 18.2783C19.3316 18.0322 19.2964 17.7715 19.2964 17.4961C19.2964 17.3613 19.3169 17.2031 19.3579 17.0215C19.4048 16.8398 19.478 16.6523 19.5777 16.459C19.6831 16.2598 19.8179 16.0664 19.982 15.8789C20.1519 15.6855 20.3628 15.5156 20.6148 15.3691C20.8667 15.2168 21.1626 15.0938 21.5025 15C21.8423 14.9062 22.2349 14.8594 22.6802 14.8594C22.9966 14.8594 23.2925 14.8799 23.5679 14.9209C23.8491 14.9619 24.104 15.0176 24.3325 15.0879C24.5669 15.1523 24.7808 15.2285 24.9741 15.3164C25.1675 15.3984 25.3404 15.4805 25.4927 15.5625L25.1851 17.1006Z" fill="white"/>
</svg>
