<svg width="66" height="62" viewBox="0 0 66 62" fill="none" xmlns="http://www.w3.org/2000/svg">
<path d="M33 59.5079C49.5685 59.5079 63 46.8582 63 31.254C63 15.6497 49.5685 3 33 3C16.4315 3 3 15.6497 3 31.254C3 46.8582 16.4315 59.5079 33 59.5079Z" stroke="#065374" stroke-width="4.5"/>
<path d="M12.7209 19.5455H18.7489L24.5533 30.5078H24.8018L30.6062 19.5455H36.6342L27.3498 36.0014V45H22.0053V36.0014L12.7209 19.5455ZM44.1009 45.3729C42.1454 45.3729 40.4634 44.9586 39.0548 44.13C37.6544 43.2931 36.5773 42.133 35.8232 40.6499C35.0775 39.1667 34.7046 37.4598 34.7046 35.5291C34.7046 33.5736 35.0816 31.8584 35.8357 30.3835C36.598 28.9003 37.6793 27.7444 39.0796 26.9158C40.48 26.079 42.1454 25.6605 44.0761 25.6605C45.7416 25.6605 47.1999 25.9629 48.4511 26.5678C49.7023 27.1727 50.6924 28.022 51.4216 29.1158C52.1508 30.2095 52.5526 31.4938 52.6272 32.9688H47.6308C47.4899 32.0159 47.117 31.2494 46.5122 30.6694C45.9156 30.0811 45.1325 29.7869 44.1631 29.7869C43.3428 29.7869 42.626 30.0107 42.0129 30.4581C41.408 30.8973 40.9357 31.5394 40.596 32.3846C40.2562 33.2298 40.0864 34.2531 40.0864 35.4545C40.0864 36.6726 40.2521 37.7083 40.5835 38.5618C40.9233 39.4152 41.3997 40.0657 42.0129 40.5131C42.626 40.9606 43.3428 41.1843 44.1631 41.1843C44.768 41.1843 45.3107 41.06 45.7913 40.8114C46.2802 40.5629 46.682 40.2024 46.9969 39.7301C47.32 39.2495 47.5313 38.6737 47.6308 38.0025H52.6272C52.5444 39.4608 52.1466 40.7451 51.434 41.8555C50.7297 42.9575 49.7561 43.8192 48.5132 44.4407C47.2703 45.0621 45.7996 45.3729 44.1009 45.3729Z" fill="#065374"/>
</svg>
