<svg width="112" height="112" viewBox="0 0 112 112" fill="none" xmlns="http://www.w3.org/2000/svg">
<circle cx="55.6372" cy="55.6293" r="55.6293" fill="#065374"/>
<path d="M55.6611 36.3984C45.044 36.3984 36.4062 44.8027 36.4062 55.1329V62.8946C36.4062 64.813 38.1334 66.3735 40.2572 66.3735H42.1827C42.6934 66.3735 43.1831 66.1762 43.5442 65.8248C43.9053 65.4735 44.1082 64.997 44.1082 64.5001V54.865C44.1082 54.3681 43.9053 53.8916 43.5442 53.5402C43.1831 53.1889 42.6934 52.9915 42.1827 52.9915H40.4344C41.5049 45.7413 47.9168 40.1453 55.6611 40.1453C63.4054 40.1453 69.8173 45.7413 70.8878 52.9915H69.1395C68.6288 52.9915 68.1391 53.1889 67.778 53.5402C67.4169 53.8916 67.214 54.3681 67.214 54.865V66.3735C67.214 68.4399 65.4868 70.1204 63.363 70.1204H59.5121V68.247H51.8101V73.8673H63.363C67.6106 73.8673 71.065 70.5064 71.065 66.3735C73.1888 66.3735 74.9159 64.813 74.9159 62.8946V55.1329C74.9159 44.8027 66.2782 36.3984 55.6611 36.3984Z" fill="white"/>
</svg>
