<svg width="20" height="20" viewBox="0 0 20 20" fill="none" xmlns="http://www.w3.org/2000/svg">
<path d="M10.1399 0.0009291C4.51611 -0.0750253 -0.0750289 4.51589 0.000929144 10.1394C0.0759257 15.5326 4.46755 19.9241 9.86105 19.999C15.4858 20.076 20.076 15.485 19.999 9.86154C19.925 4.46734 15.5334 0.075922 10.1399 0.0009291ZM9.33271 9.25342L11.811 6.41715C11.9452 6.26352 12.135 6.16951 12.3386 6.15581C12.5422 6.1421 12.7428 6.20983 12.8965 6.34408C13.0501 6.47834 13.1441 6.66812 13.1578 6.87169C13.1715 7.07525 13.1038 7.27592 12.9696 7.42956L10.4913 10.2658C10.4248 10.3419 10.344 10.4041 10.2535 10.449C10.163 10.4938 10.0645 10.5204 9.96368 10.5272C9.86288 10.534 9.76173 10.5208 9.66601 10.4885C9.57028 10.4562 9.48186 10.4054 9.40578 10.3389C9.32971 10.2724 9.26747 10.1916 9.22263 10.1011C9.17779 10.0106 9.15121 9.91209 9.14443 9.81129C9.13764 9.7105 9.15078 9.60935 9.18308 9.51363C9.21539 9.41791 9.26623 9.3295 9.33271 9.25342ZM7.46453 13.6208C7.32029 13.7649 7.12472 13.8459 6.9208 13.8459C6.71689 13.8459 6.52132 13.7649 6.37708 13.6208L4.0719 11.3133C4.00049 11.2419 3.94386 11.157 3.90525 11.0637C3.86663 10.9703 3.84677 10.8703 3.84682 10.7693C3.84686 10.6683 3.8668 10.5682 3.90551 10.4749C3.94421 10.3816 4.00091 10.2968 4.07238 10.2254C4.14384 10.154 4.22867 10.0974 4.32202 10.0588C4.41537 10.0202 4.51542 10.0003 4.61644 10.0004C4.71746 10.0004 4.81749 10.0204 4.91081 10.0591C5.00412 10.0978 5.0889 10.1545 5.16031 10.2259L7.46789 12.5334C7.61159 12.6781 7.69196 12.8739 7.69133 13.0778C7.69069 13.2817 7.60912 13.477 7.46453 13.6208ZM15.9641 7.42956L10.5855 13.5828C10.5162 13.6622 10.4314 13.7265 10.3362 13.7718C10.241 13.817 10.1375 13.8422 10.0322 13.8458H10.0062C9.90516 13.8458 9.80507 13.8259 9.7117 13.7872C9.61832 13.7485 9.53348 13.6918 9.46203 13.6203L7.15733 11.3128C7.01313 11.1685 6.93216 10.9728 6.93225 10.7688C6.93234 10.5648 7.01348 10.3692 7.15781 10.225C7.30214 10.0808 7.49785 9.99981 7.70188 9.9999C7.9059 9.99999 8.10154 10.0811 8.24574 10.2254L9.67837 11.6594C9.71561 11.6967 9.76011 11.7259 9.8091 11.7452C9.8581 11.7646 9.91055 11.7737 9.96319 11.7719C10.0158 11.7702 10.0676 11.7576 10.1152 11.735C10.1628 11.7125 10.2052 11.6804 10.2399 11.6407L14.807 6.41715C14.9412 6.26352 15.131 6.16951 15.3346 6.15581C15.5382 6.1421 15.7389 6.20983 15.8925 6.34408C16.0461 6.47834 16.1402 6.66812 16.1539 6.87169C16.1676 7.07525 16.0998 7.27592 15.9656 7.42956H15.9641Z" fill="#22AA00"/>
</svg>
