<svg width="20" height="20" viewBox="0 0 20 20" fill="none" xmlns="http://www.w3.org/2000/svg">
<path fill-rule="evenodd" clip-rule="evenodd" d="M10 20C15.5228 20 20 15.5228 20 10C20 4.47715 15.5228 0 10 0C4.47715 0 0 4.47715 0 10C0 15.5228 4.47715 20 10 20ZM6.5539 8.83622C6.45278 9.90813 6.76365 10.9783 7.42328 11.8291C7.41514 11.8363 7.4072 11.8437 7.39948 11.8513L5.15502 14.0961C5.10587 14.1453 5.06689 14.2037 5.04029 14.2679C5.01369 14.3321 5 14.401 5 14.4705C5 14.54 5.01369 14.6089 5.04029 14.6731C5.06689 14.7374 5.10587 14.7958 5.15502 14.8449C5.20417 14.8941 5.26252 14.9331 5.32673 14.9597C5.39094 14.9863 5.45977 15 5.52927 15C5.59878 15 5.6676 14.9863 5.73182 14.9597C5.79603 14.9331 5.85438 14.8941 5.90353 14.8449L8.14745 12.5996L8.1702 12.5758C9.02042 13.2373 10.0908 13.5495 11.1632 13.449C12.2356 13.3484 13.2292 12.8425 13.9418 12.0345C14.6543 11.2264 15.032 10.1769 14.9979 9.09997C14.9638 8.02299 14.5205 6.99955 13.7583 6.23819C12.9968 5.47736 11.9742 5.03533 10.8984 5.00203C9.82271 4.96873 8.7747 5.34666 7.96762 6.05893C7.16054 6.7712 6.65502 7.76431 6.5539 8.83622ZM7.82255 8.01739C7.98525 7.63115 8.22278 7.28094 8.52144 6.98699C9.11829 6.39955 9.923 6.07184 10.7603 6.07525C11.5976 6.07866 12.3996 6.41291 12.9916 7.0052C13.5837 7.59749 13.9178 8.39982 13.9212 9.23743C13.9246 10.075 13.597 10.8801 13.0098 11.4772C12.716 11.7759 12.3659 12.0136 11.9798 12.1763C11.5937 12.3391 11.1792 12.4238 10.7603 12.4255C10.3413 12.4272 9.92614 12.3459 9.53874 12.1863C9.15133 12.0267 8.79935 11.7919 8.50309 11.4955C8.20683 11.1991 7.97216 10.847 7.81261 10.4595C7.65307 10.0719 7.5718 9.65657 7.57351 9.23743C7.57521 8.81829 7.65986 8.40364 7.82255 8.01739Z" fill="white"/>
</svg>
