<svg width="32" height="32" viewBox="0 0 32 32" fill="none" xmlns="http://www.w3.org/2000/svg">
<path d="M16 0C7.16077 0 0 7.16181 0 16C0 24.8382 7.16181 32 16 32C24.8392 32 32 24.8382 32 16C32 7.16181 24.8382 0 16 0ZM23.8586 10.9615L21.2325 23.3363C21.0385 24.2137 20.5161 24.4263 19.7874 24.0134L15.7874 21.0653L13.8581 22.9234C13.6454 23.136 13.4648 23.3166 13.0519 23.3166L13.3357 19.2454L20.7484 12.5481C21.0715 12.2643 20.6772 12.1032 20.2508 12.3871L11.0895 18.1543L7.14116 16.9218C6.28335 16.6514 6.26374 16.064 7.32181 15.6511L22.7479 9.70219C23.4643 9.44413 24.0898 9.87665 23.8575 10.9605L23.8586 10.9615Z" fill="#003F5A"/>
</svg>
