<svg width="25" height="25" viewBox="0 0 25 25" fill="none" xmlns="http://www.w3.org/2000/svg">
<path fill-rule="evenodd" clip-rule="evenodd" d="M12.5 25C19.4036 25 25 19.4036 25 12.5C25 5.59644 19.4036 0 12.5 0C5.59644 0 0 5.59644 0 12.5C0 19.4036 5.59644 25 12.5 25ZM15.3629 19.4966C15.0498 19.8189 14.6251 20 14.1823 20C13.7395 20 13.3149 19.8189 13.0018 19.4966C12.6887 19.1743 12.5128 18.7371 12.5128 18.2812C12.5128 17.8254 12.6887 17.3882 13.0018 17.0659C13.3149 16.7436 13.7395 16.5625 14.1823 16.5625C14.6251 16.5625 15.0498 16.7436 15.3629 17.0659C15.676 17.3882 15.8519 17.8254 15.8519 18.2812C15.8519 18.7371 15.676 19.1743 15.3629 19.4966ZM9.51938 19.4966C9.20627 19.8189 8.78161 20 8.33881 20C7.896 20 7.47134 19.8189 7.15823 19.4966C6.84512 19.1743 6.66922 18.7371 6.66922 18.2812C6.66922 17.8254 6.84512 17.3882 7.15823 17.0659C7.47134 16.7436 7.896 16.5625 8.33881 16.5625C8.78161 16.5625 9.20627 16.7436 9.51938 17.0659C9.83249 17.3882 10.0084 17.8254 10.0084 18.2812C10.0084 18.7371 9.83249 19.1743 9.51938 19.4966ZM19.7739 7.65137C19.6288 7.80557 19.4312 7.89566 19.2228 7.90258H18.262L17.2151 12.7512C17.0567 13.4854 16.6598 14.1421 16.0898 14.6127C15.5199 15.0833 14.8111 15.3397 14.0805 15.3396H7.80955C7.45144 15.3397 7.10359 15.2165 6.82133 14.9896C6.53907 14.7627 6.33861 14.4452 6.25183 14.0875L5.04806 9.13062C4.98879 8.88692 4.98428 8.63251 5.03487 8.38675C5.08545 8.14098 5.1898 7.91032 5.33998 7.7123C5.49016 7.51428 5.68222 7.35412 5.90156 7.24398C6.1209 7.13385 6.36174 7.07664 6.60578 7.07672H14.4069C14.6133 7.08642 14.8082 7.17766 14.951 7.33148C15.0937 7.4853 15.1734 7.68984 15.1734 7.90258C15.1734 8.11531 15.0937 8.31986 14.951 8.47368C14.8082 8.62749 14.6133 8.71874 14.4069 8.72844H6.60578L7.80955 13.687H14.0805C14.8335 13.687 15.4846 13.1491 15.6482 12.3928L16.6942 7.54422C16.8579 6.78797 17.509 6.25 18.262 6.25H19.2228C19.4312 6.25692 19.6288 6.34701 19.7739 6.50121C19.9189 6.65541 20 6.86164 20 7.07629C20 7.29093 19.9189 7.49716 19.7739 7.65137Z" fill="white"/>
</svg>
