<svg width="25" height="25" viewBox="0 0 25 25" fill="none" xmlns="http://www.w3.org/2000/svg">
<path d="M12.5 0C5.59436 0 0 5.59513 0 12.4999C0 19.4047 5.59516 24.9998 12.5 24.9998C19.4056 24.9998 25 19.4047 25 12.4999C25 5.59513 19.4048 0 12.5 0ZM18.6395 8.56366L16.5879 18.2313C16.4363 18.9168 16.0282 19.0829 15.4589 18.7604L12.3339 16.4572L10.8266 17.9088C10.6605 18.0749 10.5194 18.216 10.1968 18.216L10.4185 15.0354L16.2097 9.80317C16.4621 9.58139 16.154 9.45559 15.821 9.67736L8.66371 14.183L5.57903 13.2201C4.90887 13.0088 4.89355 12.5499 5.72016 12.2273L17.7718 7.57979C18.3315 7.37818 18.8202 7.71608 18.6387 8.56285L18.6395 8.56366Z" fill="white"/>
</svg>
