<svg width="188" height="27" viewBox="0 0 188 27" fill="none" xmlns="http://www.w3.org/2000/svg">
<path d="M14.75 2.625L9 13.7V20H6.15V13.7L0.375 2.625H3.55L7.575 11.15L11.6 2.625H14.75ZM29.6367 12.775C29.6367 13.2917 29.6034 13.7583 29.5367 14.175H19.0117C19.0951 15.275 19.5034 16.1583 20.2367 16.825C20.9701 17.4917 21.8701 17.825 22.9367 17.825C24.4701 17.825 25.5534 17.1833 26.1867 15.9H29.2617C28.8451 17.1667 28.0867 18.2083 26.9867 19.025C25.9034 19.825 24.5534 20.225 22.9367 20.225C21.6201 20.225 20.4367 19.9333 19.3867 19.35C18.3534 18.75 17.5367 17.9167 16.9367 16.85C16.3534 15.7667 16.0617 14.5167 16.0617 13.1C16.0617 11.6833 16.3451 10.4417 16.9117 9.375C17.4951 8.29167 18.3034 7.45833 19.3367 6.875C20.3867 6.29167 21.5867 6 22.9367 6C24.2367 6 25.3951 6.28333 26.4117 6.85C27.4284 7.41667 28.2201 8.21667 28.7867 9.25C29.3534 10.2667 29.6367 11.4417 29.6367 12.775ZM26.6617 11.875C26.6451 10.825 26.2701 9.98333 25.5367 9.35C24.8034 8.71667 23.8951 8.4 22.8117 8.4C21.8284 8.4 20.9867 8.71667 20.2867 9.35C19.5867 9.96667 19.1701 10.8083 19.0367 11.875H26.6617ZM39.3914 6C40.4747 6 41.4414 6.225 42.2914 6.675C43.1581 7.125 43.8331 7.79167 44.3164 8.675C44.7997 9.55833 45.0414 10.625 45.0414 11.875V20H42.2164V12.3C42.2164 11.0667 41.9081 10.125 41.2914 9.475C40.6747 8.80833 39.8331 8.475 38.7664 8.475C37.6997 8.475 36.8497 8.80833 36.2164 9.475C35.5997 10.125 35.2914 11.0667 35.2914 12.3V20H32.4414V6.225H35.2914V7.8C35.7581 7.23333 36.3497 6.79167 37.0664 6.475C37.7997 6.15833 38.5747 6 39.3914 6ZM54.2268 6C55.2934 6 56.2351 6.21667 57.0518 6.65C57.8851 7.06667 58.5351 7.59167 59.0018 8.225V6.225H61.8768V20.225C61.8768 21.4917 61.6101 22.6167 61.0768 23.6C60.5434 24.6 59.7684 25.3833 58.7518 25.95C57.7518 26.5167 56.5518 26.8 55.1518 26.8C53.2851 26.8 51.7351 26.3583 50.5018 25.475C49.2684 24.6083 48.5684 23.425 48.4018 21.925H51.2268C51.4434 22.6417 51.9018 23.2167 52.6018 23.65C53.3184 24.1 54.1684 24.325 55.1518 24.325C56.3018 24.325 57.2268 23.975 57.9268 23.275C58.6434 22.575 59.0018 21.5583 59.0018 20.225V17.925C58.5184 18.575 57.8601 19.125 57.0268 19.575C56.2101 20.0083 55.2768 20.225 54.2268 20.225C53.0268 20.225 51.9268 19.925 50.9268 19.325C49.9434 18.7083 49.1601 17.8583 48.5768 16.775C48.0101 15.675 47.7268 14.4333 47.7268 13.05C47.7268 11.6667 48.0101 10.4417 48.5768 9.375C49.1601 8.30833 49.9434 7.48333 50.9268 6.9C51.9268 6.3 53.0268 6 54.2268 6ZM59.0018 13.1C59.0018 12.15 58.8018 11.325 58.4018 10.625C58.0184 9.925 57.5101 9.39167 56.8768 9.025C56.2434 8.65833 55.5601 8.475 54.8268 8.475C54.0934 8.475 53.4101 8.65833 52.7768 9.025C52.1434 9.375 51.6268 9.9 51.2268 10.6C50.8434 11.2833 50.6518 12.1 50.6518 13.05C50.6518 14 50.8434 14.8333 51.2268 15.55C51.6268 16.2667 52.1434 16.8167 52.7768 17.2C53.4268 17.5667 54.1101 17.75 54.8268 17.75C55.5601 17.75 56.2434 17.5667 56.8768 17.2C57.5101 16.8333 58.0184 16.3 58.4018 15.6C58.8018 14.8833 59.0018 14.05 59.0018 13.1ZM67.0701 4.4C66.5535 4.4 66.1201 4.225 65.7701 3.875C65.4201 3.525 65.2451 3.09167 65.2451 2.575C65.2451 2.05833 65.4201 1.625 65.7701 1.275C66.1201 0.924999 66.5535 0.749999 67.0701 0.749999C67.5701 0.749999 67.9951 0.924999 68.3451 1.275C68.6951 1.625 68.8701 2.05833 68.8701 2.575C68.8701 3.09167 68.6951 3.525 68.3451 3.875C67.9951 4.225 67.5701 4.4 67.0701 4.4ZM68.4701 6.225V20H65.6201V6.225H68.4701ZM75.0619 1.5V20H72.2119V1.5H75.0619ZM83.8037 20.225C82.7204 20.225 81.7454 20.0333 80.8787 19.65C80.0287 19.25 79.3537 18.7167 78.8537 18.05C78.3537 17.3667 78.087 16.6083 78.0537 15.775H81.0037C81.0537 16.3583 81.3287 16.85 81.8287 17.25C82.3454 17.6333 82.987 17.825 83.7537 17.825C84.5537 17.825 85.1704 17.675 85.6037 17.375C86.0537 17.0583 86.2787 16.6583 86.2787 16.175C86.2787 15.6583 86.0287 15.275 85.5287 15.025C85.0454 14.775 84.2704 14.5 83.2037 14.2C82.1704 13.9167 81.3287 13.6417 80.6787 13.375C80.0287 13.1083 79.462 12.7 78.9787 12.15C78.512 11.6 78.2787 10.875 78.2787 9.975C78.2787 9.24167 78.4954 8.575 78.9287 7.975C79.362 7.35833 79.9787 6.875 80.7787 6.525C81.5954 6.175 82.5287 6 83.5787 6C85.1454 6 86.4037 6.4 87.3537 7.2C88.3204 7.98333 88.837 9.05833 88.9037 10.425H86.0537C86.0037 9.80833 85.7537 9.31667 85.3037 8.95C84.8537 8.58333 84.2454 8.4 83.4787 8.4C82.7287 8.4 82.1537 8.54167 81.7537 8.825C81.3537 9.10833 81.1537 9.48333 81.1537 9.95C81.1537 10.3167 81.287 10.625 81.5537 10.875C81.8204 11.125 82.1454 11.325 82.5287 11.475C82.912 11.6083 83.4787 11.7833 84.2287 12C85.2287 12.2667 86.0454 12.5417 86.6787 12.825C87.3287 13.0917 87.887 13.4917 88.3537 14.025C88.8204 14.5583 89.062 15.2667 89.0787 16.15C89.0787 16.9333 88.862 17.6333 88.4287 18.25C87.9954 18.8667 87.3787 19.35 86.5787 19.7C85.7954 20.05 84.8704 20.225 83.8037 20.225ZM91.2082 13.05C91.2082 11.6667 91.4915 10.4417 92.0582 9.375C92.6415 8.30833 93.4249 7.48333 94.4082 6.9C95.4082 6.3 96.5082 6 97.7082 6C98.7915 6 99.7332 6.21667 100.533 6.65C101.35 7.06667 102 7.59167 102.483 8.225V6.225H105.358V20H102.483V17.95C102 18.6 101.342 19.1417 100.508 19.575C99.6749 20.0083 98.7249 20.225 97.6582 20.225C96.4749 20.225 95.3915 19.925 94.4082 19.325C93.4249 18.7083 92.6415 17.8583 92.0582 16.775C91.4915 15.675 91.2082 14.4333 91.2082 13.05ZM102.483 13.1C102.483 12.15 102.283 11.325 101.883 10.625C101.5 9.925 100.992 9.39167 100.358 9.025C99.7249 8.65833 99.0415 8.475 98.3082 8.475C97.5749 8.475 96.8915 8.65833 96.2582 9.025C95.6249 9.375 95.1082 9.9 94.7082 10.6C94.3249 11.2833 94.1332 12.1 94.1332 13.05C94.1332 14 94.3249 14.8333 94.7082 15.55C95.1082 16.2667 95.6249 16.8167 96.2582 17.2C96.9082 17.5667 97.5915 17.75 98.3082 17.75C99.0415 17.75 99.7249 17.5667 100.358 17.2C100.992 16.8333 101.5 16.3 101.883 15.6C102.283 14.8833 102.483 14.05 102.483 13.1ZM114.427 17.45L118.327 6.225H121.352L116.102 20H112.702L107.477 6.225H110.527L114.427 17.45ZM122.556 13.05C122.556 11.6667 122.839 10.4417 123.406 9.375C123.989 8.30833 124.773 7.48333 125.756 6.9C126.756 6.3 127.864 6 129.081 6C129.981 6 130.864 6.2 131.731 6.6C132.614 6.98333 133.314 7.5 133.831 8.15V1.5H136.706V20H133.831V17.925C133.364 18.5917 132.714 19.1417 131.881 19.575C131.064 20.0083 130.123 20.225 129.056 20.225C127.856 20.225 126.756 19.925 125.756 19.325C124.773 18.7083 123.989 17.8583 123.406 16.775C122.839 15.675 122.556 14.4333 122.556 13.05ZM133.831 13.1C133.831 12.15 133.631 11.325 133.231 10.625C132.848 9.925 132.339 9.39167 131.706 9.025C131.073 8.65833 130.389 8.475 129.656 8.475C128.923 8.475 128.239 8.65833 127.606 9.025C126.973 9.375 126.456 9.9 126.056 10.6C125.673 11.2833 125.481 12.1 125.481 13.05C125.481 14 125.673 14.8333 126.056 15.55C126.456 16.2667 126.973 16.8167 127.606 17.2C128.256 17.5667 128.939 17.75 129.656 17.75C130.389 17.75 131.073 17.5667 131.706 17.2C132.339 16.8333 132.848 16.3 133.231 15.6C133.631 14.8833 133.831 14.05 133.831 13.1ZM146.424 20.225C145.124 20.225 143.949 19.9333 142.899 19.35C141.849 18.75 141.024 17.9167 140.424 16.85C139.824 15.7667 139.524 14.5167 139.524 13.1C139.524 11.7 139.833 10.4583 140.449 9.375C141.066 8.29167 141.908 7.45833 142.974 6.875C144.041 6.29167 145.233 6 146.549 6C147.866 6 149.058 6.29167 150.124 6.875C151.191 7.45833 152.033 8.29167 152.649 9.375C153.266 10.4583 153.574 11.7 153.574 13.1C153.574 14.5 153.258 15.7417 152.624 16.825C151.991 17.9083 151.124 18.75 150.024 19.35C148.941 19.9333 147.741 20.225 146.424 20.225ZM146.424 17.75C147.158 17.75 147.841 17.575 148.474 17.225C149.124 16.875 149.649 16.35 150.049 15.65C150.449 14.95 150.649 14.1 150.649 13.1C150.649 12.1 150.458 11.2583 150.074 10.575C149.691 9.875 149.183 9.35 148.549 9C147.916 8.65 147.233 8.475 146.499 8.475C145.766 8.475 145.083 8.65 144.449 9C143.833 9.35 143.341 9.875 142.974 10.575C142.608 11.2583 142.424 12.1 142.424 13.1C142.424 14.5833 142.799 15.7333 143.549 16.55C144.316 17.35 145.274 17.75 146.424 17.75ZM157.542 20.175C157.025 20.175 156.592 20 156.242 19.65C155.892 19.3 155.717 18.8667 155.717 18.35C155.717 17.8333 155.892 17.4 156.242 17.05C156.592 16.7 157.025 16.525 157.542 16.525C158.042 16.525 158.467 16.7 158.817 17.05C159.167 17.4 159.342 17.8333 159.342 18.35C159.342 18.8667 159.167 19.3 158.817 19.65C158.467 20 158.042 20.175 157.542 20.175ZM174.897 6.225V20H172.047V18.375C171.597 18.9417 171.005 19.3917 170.272 19.725C169.555 20.0417 168.789 20.2 167.972 20.2C166.889 20.2 165.914 19.975 165.047 19.525C164.197 19.075 163.522 18.4083 163.022 17.525C162.539 16.6417 162.297 15.575 162.297 14.325V6.225H165.122V13.9C165.122 15.1333 165.43 16.0833 166.047 16.75C166.664 17.4 167.505 17.725 168.572 17.725C169.639 17.725 170.48 17.4 171.097 16.75C171.73 16.0833 172.047 15.1333 172.047 13.9V6.225H174.897ZM181.182 17.675H187.432V20H177.882V17.675L184.157 8.55H177.882V6.225H187.432V8.55L181.182 17.675Z" fill="#065374"/>
</svg>
