<svg width="169" height="25" viewBox="0 0 169 25" fill="none" xmlns="http://www.w3.org/2000/svg">
<path d="M13.57 2.015L8.28 12.204V18H5.658V12.204L0.345 2.015H3.266L6.969 9.858L10.672 2.015H13.57ZM27.2658 11.353C27.2658 11.8283 27.2351 12.2577 27.1738 12.641H17.4908C17.5674 13.653 17.9431 14.4657 18.6178 15.079C19.2924 15.6923 20.1204 15.999 21.1018 15.999C22.5124 15.999 23.5091 15.4087 24.0918 14.228H26.9208C26.5374 15.3933 25.8398 16.3517 24.8278 17.103C23.8311 17.839 22.5891 18.207 21.1018 18.207C19.8904 18.207 18.8018 17.9387 17.8358 17.402C16.8851 16.85 16.1338 16.0833 15.5818 15.102C15.0451 14.1053 14.7768 12.9553 14.7768 11.652C14.7768 10.3487 15.0374 9.20633 15.5588 8.225C16.0954 7.22833 16.8391 6.46167 17.7898 5.925C18.7558 5.38833 19.8598 5.12 21.1018 5.12C22.2978 5.12 23.3634 5.38067 24.2988 5.902C25.2341 6.42333 25.9624 7.15933 26.4838 8.11C27.0051 9.04533 27.2658 10.1263 27.2658 11.353ZM24.5288 10.525C24.5134 9.559 24.1684 8.78467 23.4938 8.202C22.8191 7.61933 21.9834 7.328 20.9868 7.328C20.0821 7.328 19.3078 7.61933 18.6638 8.202C18.0198 8.76933 17.6364 9.54367 17.5138 10.525H24.5288ZM36.2401 5.12C37.2368 5.12 38.1261 5.327 38.9081 5.741C39.7054 6.155 40.3264 6.76833 40.7711 7.581C41.2158 8.39367 41.4381 9.375 41.4381 10.525V18H38.8391V10.916C38.8391 9.78133 38.5554 8.915 37.9881 8.317C37.4208 7.70367 36.6464 7.397 35.6651 7.397C34.6838 7.397 33.9018 7.70367 33.3191 8.317C32.7518 8.915 32.4681 9.78133 32.4681 10.916V18H29.8461V5.327H32.4681V6.776C32.8974 6.25467 33.4418 5.84833 34.1011 5.557C34.7758 5.26567 35.4888 5.12 36.2401 5.12ZM49.8886 5.12C50.87 5.12 51.7363 5.31933 52.4876 5.718C53.2543 6.10133 53.8523 6.58433 54.2816 7.167V5.327H56.9266V18.207C56.9266 19.3723 56.6813 20.4073 56.1906 21.312C55.7 22.232 54.987 22.9527 54.0516 23.474C53.1316 23.9953 52.0276 24.256 50.7396 24.256C49.0223 24.256 47.5963 23.8497 46.4616 23.037C45.327 22.2397 44.683 21.151 44.5296 19.771H47.1286C47.328 20.4303 47.7496 20.9593 48.3936 21.358C49.053 21.772 49.835 21.979 50.7396 21.979C51.7976 21.979 52.6486 21.657 53.2926 21.013C53.952 20.369 54.2816 19.4337 54.2816 18.207V16.091C53.837 16.689 53.2313 17.195 52.4646 17.609C51.7133 18.0077 50.8546 18.207 49.8886 18.207C48.7846 18.207 47.7726 17.931 46.8526 17.379C45.948 16.8117 45.2273 16.0297 44.6906 15.033C44.1693 14.021 43.9086 12.8787 43.9086 11.606C43.9086 10.3333 44.1693 9.20633 44.6906 8.225C45.2273 7.24367 45.948 6.48467 46.8526 5.948C47.7726 5.396 48.7846 5.12 49.8886 5.12ZM54.2816 11.652C54.2816 10.778 54.0976 10.019 53.7296 9.375C53.377 8.731 52.9093 8.24033 52.3266 7.903C51.744 7.56567 51.1153 7.397 50.4406 7.397C49.766 7.397 49.1373 7.56567 48.5546 7.903C47.972 8.225 47.4966 8.708 47.1286 9.352C46.776 9.98067 46.5996 10.732 46.5996 11.606C46.5996 12.48 46.776 13.2467 47.1286 13.906C47.4966 14.5653 47.972 15.0713 48.5546 15.424C49.1526 15.7613 49.7813 15.93 50.4406 15.93C51.1153 15.93 51.744 15.7613 52.3266 15.424C52.9093 15.0867 53.377 14.596 53.7296 13.952C54.0976 13.2927 54.2816 12.526 54.2816 11.652ZM61.7045 3.648C61.2292 3.648 60.8305 3.487 60.5085 3.165C60.1865 2.843 60.0255 2.44433 60.0255 1.969C60.0255 1.49367 60.1865 1.095 60.5085 0.773C60.8305 0.450999 61.2292 0.289999 61.7045 0.289999C62.1645 0.289999 62.5555 0.450999 62.8775 0.773C63.1995 1.095 63.3605 1.49367 63.3605 1.969C63.3605 2.44433 63.1995 2.843 62.8775 3.165C62.5555 3.487 62.1645 3.648 61.7045 3.648ZM62.9925 5.327V18H60.3705V5.327H62.9925ZM69.057 0.98V18H66.435V0.98H69.057ZM71.6254 11.652C71.6254 10.3487 71.8861 9.20633 72.4074 8.225C72.9441 7.22833 73.6801 6.46167 74.6154 5.925C75.5507 5.38833 76.6241 5.12 77.8354 5.12C79.3687 5.12 80.6337 5.488 81.6304 6.224C82.6424 6.94467 83.3247 7.97967 83.6774 9.329H80.8484C80.6184 8.70033 80.2504 8.20967 79.7444 7.857C79.2384 7.50433 78.6021 7.328 77.8354 7.328C76.7621 7.328 75.9034 7.71133 75.2594 8.478C74.6307 9.22933 74.3164 10.2873 74.3164 11.652C74.3164 13.0167 74.6307 14.0823 75.2594 14.849C75.9034 15.6157 76.7621 15.999 77.8354 15.999C79.3534 15.999 80.3577 15.332 80.8484 13.998H83.6774C83.3094 15.286 82.6194 16.3133 81.6074 17.08C80.5954 17.8313 79.3381 18.207 77.8354 18.207C76.6241 18.207 75.5507 17.9387 74.6154 17.402C73.6801 16.85 72.9441 16.0833 72.4074 15.102C71.8861 14.1053 71.6254 12.9553 71.6254 11.652ZM88.9124 7.167C89.2958 6.523 89.8018 6.02467 90.4304 5.672C91.0744 5.304 91.8334 5.12 92.7074 5.12V7.834H92.0404C91.0131 7.834 90.2311 8.09467 89.6944 8.616C89.1731 9.13733 88.9124 10.042 88.9124 11.33V18H86.2904V5.327H88.9124V7.167ZM106.733 11.353C106.733 11.8283 106.702 12.2577 106.641 12.641H96.9576C97.0342 13.653 97.4099 14.4657 98.0846 15.079C98.7592 15.6923 99.5872 15.999 100.569 15.999C101.979 15.999 102.976 15.4087 103.559 14.228H106.388C106.004 15.3933 105.307 16.3517 104.295 17.103C103.298 17.839 102.056 18.207 100.569 18.207C99.3572 18.207 98.2686 17.9387 97.3026 17.402C96.3519 16.85 95.6006 16.0833 95.0486 15.102C94.5119 14.1053 94.2436 12.9553 94.2436 11.652C94.2436 10.3487 94.5042 9.20633 95.0256 8.225C95.5622 7.22833 96.3059 6.46167 97.2566 5.925C98.2226 5.38833 99.3266 5.12 100.569 5.12C101.765 5.12 102.83 5.38067 103.766 5.902C104.701 6.42333 105.429 7.15933 105.951 8.11C106.472 9.04533 106.733 10.1263 106.733 11.353ZM103.996 10.525C103.98 9.559 103.635 8.78467 102.961 8.202C102.286 7.61933 101.45 7.328 100.454 7.328C99.5489 7.328 98.7746 7.61933 98.1306 8.202C97.4866 8.76933 97.1032 9.54367 96.9806 10.525H103.996ZM108.439 11.606C108.439 10.3333 108.7 9.20633 109.221 8.225C109.758 7.24367 110.478 6.48467 111.383 5.948C112.303 5.396 113.323 5.12 114.442 5.12C115.27 5.12 116.083 5.304 116.88 5.672C117.693 6.02467 118.337 6.5 118.812 7.098V0.98H121.457V18H118.812V16.091C118.383 16.7043 117.785 17.2103 117.018 17.609C116.267 18.0077 115.4 18.207 114.419 18.207C113.315 18.207 112.303 17.931 111.383 17.379C110.478 16.8117 109.758 16.0297 109.221 15.033C108.7 14.021 108.439 12.8787 108.439 11.606ZM118.812 11.652C118.812 10.778 118.628 10.019 118.26 9.375C117.907 8.731 117.44 8.24033 116.857 7.903C116.274 7.56567 115.646 7.397 114.971 7.397C114.296 7.397 113.668 7.56567 113.085 7.903C112.502 8.225 112.027 8.708 111.659 9.352C111.306 9.98067 111.13 10.732 111.13 11.606C111.13 12.48 111.306 13.2467 111.659 13.906C112.027 14.5653 112.502 15.0713 113.085 15.424C113.683 15.7613 114.312 15.93 114.971 15.93C115.646 15.93 116.274 15.7613 116.857 15.424C117.44 15.0867 117.907 14.596 118.26 13.952C118.628 13.2927 118.812 12.526 118.812 11.652ZM126.235 3.648C125.759 3.648 125.361 3.487 125.039 3.165C124.717 2.843 124.556 2.44433 124.556 1.969C124.556 1.49367 124.717 1.095 125.039 0.773C125.361 0.450999 125.759 0.289999 126.235 0.289999C126.695 0.289999 127.086 0.450999 127.408 0.773C127.73 1.095 127.891 1.49367 127.891 1.969C127.891 2.44433 127.73 2.843 127.408 3.165C127.086 3.487 126.695 3.648 126.235 3.648ZM127.523 5.327V18H124.901V5.327H127.523ZM134.024 7.466V14.481C134.024 14.9563 134.132 15.3013 134.346 15.516C134.576 15.7153 134.96 15.815 135.496 15.815H137.106V18H135.036C133.856 18 132.951 17.724 132.322 17.172C131.694 16.62 131.379 15.723 131.379 14.481V7.466H129.884V5.327H131.379V2.176H134.024V5.327H137.106V7.466H134.024ZM140.581 18.161C140.106 18.161 139.707 18 139.385 17.678C139.063 17.356 138.902 16.9573 138.902 16.482C138.902 16.0067 139.063 15.608 139.385 15.286C139.707 14.964 140.106 14.803 140.581 14.803C141.041 14.803 141.432 14.964 141.754 15.286C142.076 15.608 142.237 16.0067 142.237 16.482C142.237 16.9573 142.076 17.356 141.754 17.678C141.432 18 141.041 18.161 140.581 18.161ZM156.548 5.327V18H153.926V16.505C153.512 17.0263 152.967 17.4403 152.293 17.747C151.633 18.0383 150.928 18.184 150.177 18.184C149.18 18.184 148.283 17.977 147.486 17.563C146.704 17.149 146.083 16.5357 145.623 15.723C145.178 14.9103 144.956 13.929 144.956 12.779V5.327H147.555V12.388C147.555 13.5227 147.838 14.3967 148.406 15.01C148.973 15.608 149.747 15.907 150.729 15.907C151.71 15.907 152.484 15.608 153.052 15.01C153.634 14.3967 153.926 13.5227 153.926 12.388V5.327H156.548ZM162.33 15.861H168.08V18H159.294V15.861L165.067 7.466H159.294V5.327H168.08V7.466L162.33 15.861Z" fill="#065374"/>
</svg>
